<svg width="460" height="460" viewBox="0 0 460 460" fill="none" xmlns="http://www.w3.org/2000/svg">
<g clip-path="url(#clip0_670_2597)">
<path id="AC" d="M86.8798 179.969C86.8798 179.969 86.8346 179.992 86.812 180.003C85.9539 180.285 84.9943 180.421 84.3394 181.053C82.9846 182.385 83.7184 185.219 82.0136 186.1C81.0313 186.597 79.7894 186.066 78.762 186.472C77.17 187.093 77.1248 189.351 76.0297 190.672C74.8555 192.095 72.3264 192.027 71.2425 190.548C71.1861 192.355 71.1296 194.15 71.0732 195.956H40.5213V178.648C36.7052 178.896 33.6003 183.051 29.9535 184.203C28.5874 184.632 27.1422 184.609 25.7196 184.564C24.5002 184.53 23.2696 184.508 22.0502 184.474C21.6325 184.451 21.1809 184.44 20.8647 184.158C20.5712 183.887 20.4808 183.447 20.4244 183.04C20.2099 181.663 20.0067 180.296 19.7921 178.919C17.7711 179.856 15.3324 178.817 13.7066 177.305C12.0695 175.792 10.9179 173.816 9.29205 172.303C7.57591 170.722 5.20492 169.356 4.96782 167.03C4.80976 165.495 5.69041 163.812 4.92266 162.469C4.6404 161.983 4.18878 161.622 3.78233 161.227C0.971017 158.551 0.621014 154.249 0.462948 150.366C0.372625 148.401 0.688756 145.883 2.59684 145.398C2.82264 145.33 3.08232 145.307 3.342 145.307L86.9136 179.969H86.8798Z" fill="#F7F7F7" stroke="#D3D3D3" stroke-width="0.846781" stroke-miterlimit="10"/>
<path id="RO" d="M169.232 201.861L156.813 222.873C141.334 221.089 126.814 212.7 113.367 204.774C110.827 203.273 108.196 201.715 106.401 199.355C104.03 196.25 103.386 192.163 103.217 188.256C103.059 184.451 103.059 180.127 100.259 177.542C99.1977 176.559 97.7864 175.961 96.3525 175.848L123.585 155.221H133.25L141.537 166.613L146.042 166.522V190.808L164.366 190.435L163.429 195.482L158.19 195.855L162.119 200.71L169.221 201.839L169.232 201.861Z" fill="#F7F7F7" stroke="#D3D3D3" stroke-width="0.846781" stroke-miterlimit="10"/>
<path id="AM" d="M181.087 139.967L186.066 149.587L179.529 165.935L146.041 166.545L141.537 166.635L133.249 155.243H123.585L96.3524 175.871C95.6185 175.803 94.8508 175.871 94.1282 176.051C91.4636 176.774 89.4878 179.111 86.8684 179.98L3.30811 145.308C4.43715 145.308 5.65651 145.714 6.42426 144.946C6.842 144.529 6.94362 143.896 7.02265 143.309C7.19201 141.966 7.32749 140.611 7.24846 139.256C7.13556 137.133 6.492 134.977 7.02265 132.911C7.5533 130.856 10.0259 129.083 11.7872 130.28C11.3695 127.593 11.042 125.357 11.3017 122.648C11.3356 122.253 11.4033 121.846 11.6517 121.541C11.934 121.236 12.3743 121.124 12.7808 121.09C14.4517 120.943 16.405 121.496 17.6356 120.356C18.2679 119.769 18.5276 118.877 19.0808 118.211C21.226 115.569 25.968 117.815 28.6664 115.749C30.1115 114.643 30.5406 112.565 31.9293 111.391C34.9213 108.851 40.0245 111.865 43.2649 109.63C44.6762 108.659 45.3197 106.92 45.8842 105.283C46.9455 102.223 48.0068 99.1411 49.0681 96.0814C49.9036 93.6653 50.7504 91.1701 50.6488 88.6184C50.5246 85.5587 49.0343 82.7023 48.7069 79.6539C48.2665 75.4764 49.9601 70.8699 47.8375 67.257C46.7762 65.4279 44.902 64.2312 43.5358 62.6166C42.1697 61.0021 41.3907 58.4392 42.7794 56.8472C43.8746 55.5827 45.8165 55.515 47.4649 55.7859C49.1133 56.0795 50.8069 56.5876 52.4327 56.1698C54.0585 55.7408 55.4134 53.8101 54.5214 52.3875C54.7585 51.6649 54.2166 50.9424 53.5166 50.6149C52.8279 50.2988 52.0262 50.3214 51.2585 50.2762C50.4907 50.2311 49.6778 50.0843 49.1359 49.5423C48.3907 48.7972 48.4585 47.5891 48.5939 46.5504C48.752 45.3197 48.944 44.0891 49.1811 42.881C49.2827 42.3391 49.3956 41.7858 49.723 41.3568C50.0165 40.9729 50.4569 40.7358 50.8972 40.5326C52.6698 39.7423 54.6795 39.5955 56.6214 39.731C58.5634 39.8665 60.4715 40.2616 62.4021 40.5213C63.0005 40.6003 63.6102 40.6568 64.1973 40.5213C64.7844 40.3971 65.3376 40.0358 65.5747 39.4713C65.7328 39.0874 65.7102 38.6697 65.7892 38.2632C65.8683 37.8455 66.0941 37.4277 66.5005 37.3261C66.7264 37.281 66.9634 37.3487 67.178 37.4277C68.307 37.8455 69.3006 38.5568 70.057 39.46C70.3506 39.8213 70.6667 40.239 71.1183 40.3294C71.6603 40.431 72.1458 40.0245 72.5183 39.6181C73.3764 38.681 74.099 37.6422 74.9684 36.7277C75.8377 35.8019 76.9216 35.0229 78.1635 34.8083C78.6039 36.5019 78.1635 38.2745 77.8248 39.9906C77.4861 41.7068 77.3168 43.6036 78.1974 45.1052C79.3716 47.081 81.7652 48.0972 82.5103 50.2875L102.257 49.3165L115.264 44.981L116.551 38.8842L123.935 38.7261L124.172 36.1293L130.314 38.41V44.5633L134.92 48.5939L134.537 53.7875L129.151 60.5053L135.304 66.0828L136.456 74.7312L142.225 78.7619L145.68 77.8022L148.943 67.4151L156.632 67.9909L162.322 59.5005L176.243 58.9585L176.345 59.2069L183.548 76.2667L209.505 86.6539L181.053 139.911L181.087 139.967Z" fill="#F7F7F7" stroke="#D3D3D3" stroke-width="0.846781" stroke-miterlimit="10"/>
<path id="RR" d="M180.105 46.0536L176.379 59.2746L176.277 59.0262L162.356 59.5682L156.666 68.0586L148.977 67.4828L145.714 77.8699L142.259 78.8296L136.49 74.799L135.338 66.1505L129.185 60.573L134.57 53.8552L134.954 48.6616L130.348 44.631V38.4777L124.206 36.197L124.443 33.6567L115.286 34.1422L114.801 17.2856L105.001 8.61456L119.294 12.792L122.828 16.484L130.054 16.8114L131.827 18.7308L134.401 14.5646C136.603 14.5646 138.804 14.7565 141.006 14.6775C141.582 14.6549 142.191 14.6323 142.711 14.3388C143.738 13.763 143.987 12.363 144.856 11.5501C145.985 10.5113 147.724 10.7484 149.203 10.3984C151.743 9.78876 153.448 7.49681 154.814 5.28388C155.717 3.82742 156.598 2.28064 158.009 1.29837C159.409 0.304813 161.521 0.0902955 162.751 1.27579C164.083 2.57419 163.801 4.76453 163.338 6.57099C163.248 6.89841 163.18 7.271 163.372 7.55326C163.508 7.76778 163.767 7.86939 164.004 7.95971C164.896 8.27584 165.788 8.60327 166.68 8.93069L163.135 36.7277L169.717 42.0229L170.519 46.2003C173.771 46.2003 176.943 46.1439 180.127 46.11L180.105 46.0536Z" fill="#F7F7F7" stroke="#D3D3D3" stroke-width="0.846781" stroke-miterlimit="10"/>
<path id="MT" d="M271.049 219.124L244.799 253.312L245.838 273.296V273.341L236.512 271.963V262.637L230.641 268.847L222.004 267.47L213.028 262.987L199.897 264.026L191.44 280.296V279.957C192.005 278.038 192.028 275.971 191.486 274.041C191.079 272.596 190.086 271.376 189.419 270.021C188.878 268.938 188.55 267.741 188.437 266.544C188.392 265.957 188.392 265.347 188.144 264.817C187.76 264.004 186.89 263.563 186.123 263.112C184.655 262.254 183.3 261.215 182.115 259.996C181.369 259.239 180.647 258.189 181.008 257.195C181.46 255.987 181.098 255.129 180.963 253.842C180.895 253.255 180.771 252.657 180.387 252.216C179.856 251.595 178.987 251.426 178.174 251.347C173.161 250.805 168.126 251.663 163.113 252.104C162.718 252.137 162.289 252.16 161.972 251.923C161.735 251.742 161.611 251.437 161.543 251.133C161.114 249.36 161.814 247.452 161.318 245.702C160.753 243.737 158.845 242.507 157.648 240.824C157.129 240.091 156.734 239.176 156.96 238.295C157.174 237.482 157.874 236.884 158.608 236.478C159.342 236.06 160.166 235.8 160.866 235.326C162.153 234.457 162.943 232.91 162.898 231.374C162.864 229.828 161.995 228.326 160.674 227.536C160.076 227.186 159.421 226.948 158.845 226.576C157.66 225.786 156.982 224.329 157.14 222.929C157.039 222.929 156.914 222.895 156.813 222.895L169.232 201.884L162.131 200.755L158.201 195.9L163.44 195.527L164.377 190.48L146.053 190.853V166.567L179.54 165.958L186.077 149.609L186.439 148.683L195.076 167.335L273.928 178.558L275.204 178.738L270.022 199.456L270.53 209.144L271.06 219.147L271.049 219.124Z" fill="#F7F7F7" stroke="#D3D3D3" stroke-width="0.846781" stroke-miterlimit="10"/>
<path id="AP" d="M281.041 49.5311C280.713 50.5924 280.104 51.507 279.618 52.4892C279.223 53.2796 278.929 54.115 278.726 54.9618L263.586 68.8377V77.2604L257.139 77.1362L234.107 44.9472L225.323 45.0714L225.131 33.9842C230.595 33.1149 235.969 36.5133 241.558 36.8746C243.907 37.0326 246.244 36.6488 248.558 36.2649C252.07 32.3697 254.892 28.1358 256.891 23.2922C258.302 19.8599 259.363 16.1454 261.915 13.4583C262.05 13.3002 262.208 13.1647 262.4 13.1196C262.683 13.0744 262.942 13.2437 263.134 13.4357C264.828 15.0051 265.031 17.5454 265.483 19.8035C266.623 25.5277 269.999 30.6536 270.891 36.4343C270.958 36.8859 271.026 37.3714 271.32 37.6988C271.546 37.9585 271.862 38.0939 272.189 38.1843C273.747 38.602 275.441 38.0036 277.01 38.3988C278.399 38.7488 279.505 39.8891 280.138 41.1875C280.77 42.4746 280.996 43.9198 281.165 45.3537C281.323 46.7537 281.436 48.1989 281.018 49.5424L281.041 49.5311Z" fill="#F7F7F7" stroke="#D3D3D3" stroke-width="0.846781" stroke-miterlimit="10"/>
<path id="MA" d="M376.264 98.6556L363.698 119.035V141.525H354.621C331.317 146.809 328.066 167.934 328.066 167.934L327.93 182.972L327.388 183.605L322.116 183.379L315.883 171.863L316.019 163.056H322.522V155.604H315.612L310.046 151.675L309.64 127.288L300.438 120.424L317.769 106.401L325.661 78.3329C326.79 78.4458 327.941 78.7055 329.048 78.7619C330.166 78.8184 331.306 78.8748 332.356 79.27C333.304 79.62 334.129 80.2297 334.953 80.8394C336.285 81.8216 337.617 82.8039 338.961 83.7749C339.762 84.362 340.587 84.9604 341.546 85.22C342.495 85.4684 343.511 85.3668 344.471 85.57C346.175 85.9539 347.53 87.2862 348.524 88.7426C349.517 90.1878 350.285 91.8024 351.414 93.1459C351.821 93.6314 352.306 94.0943 352.927 94.2298C353.729 94.4104 354.564 93.9927 355.174 93.4282C355.784 92.8636 356.235 92.1636 356.845 91.5878C362.738 93.462 368.305 96.9846 374.356 98.3056C374.989 98.4411 375.632 98.554 376.264 98.6556Z" fill="#F7F7F7" stroke="#D3D3D3" stroke-width="0.846781" stroke-miterlimit="10"/>
<path id="CE" d="M410.948 142.925L415.679 153.888L409.977 159.94L402.413 151.833H392.229L392.308 148.559L383.818 99.1863C386.268 99.2427 388.718 99.2766 391.145 99.4911C397.468 100.067 403.655 101.964 409.21 105.035C411.953 106.548 414.528 108.343 417.102 110.127C419.574 111.843 422.047 113.559 424.531 115.275C425.716 116.088 426.902 116.924 427.918 117.94C425.31 121.778 417.881 132.719 413.782 138.77C412.089 141.254 410.96 142.914 410.96 142.914L410.948 142.925Z" fill="#F7F7F7" stroke="#D3D3D3" stroke-width="0.846781" stroke-miterlimit="10"/>
<path id="RN" d="M458.729 137.991V145.025L441.85 140.701H439.366V146.674H432.321V139.278L422.442 142.485L416.379 138.917L413.771 138.77C417.869 132.719 425.31 121.778 427.907 117.94C428.019 118.052 428.132 118.165 428.257 118.29C430.413 120.627 432.4 123.404 435.189 124.917C436.566 125.662 438.158 125.877 439.716 126.024C444.616 126.453 449.584 126.261 454.428 125.47C455.173 127.559 455.173 130.032 455.658 132.199C456.144 134.367 457.002 136.591 458.729 137.98V137.991Z" fill="#F7F7F7" stroke="#D3D3D3" stroke-width="0.846781" stroke-miterlimit="10"/>
<path id="PB" d="M458.729 145.025V154.261L452.723 159.138L443.453 159.68L435.087 165.201L430.176 152.195L421.358 159.24L415.837 153.719L415.668 153.9L410.937 142.937C410.937 142.937 412.066 141.277 413.76 138.793L416.368 138.94L422.431 142.508L432.31 139.301V146.696H439.355V140.724H441.839L458.718 145.048L458.729 145.025Z" fill="#F7F7F7" stroke="#D3D3D3" stroke-width="0.846781" stroke-miterlimit="10"/>
<path id="PE" d="M458.729 154.261V164.456C458.639 166.082 457.476 167.527 456.471 168.814C455.478 170.09 454.304 171.242 453.412 172.608C453.163 172.992 452.926 173.387 452.734 173.793L444.086 175.984L432.332 176.605L426.54 171.626L423.515 171.276L416.91 174.979L416.831 175.013L404.716 165.845L390.998 176.887L385.455 168.995L385.737 169.051L385.658 165.382L392.026 160.234L392.218 151.856H402.402L409.966 159.963L415.668 153.911L415.837 153.73L421.358 159.251L430.176 152.206L435.087 165.213L443.453 159.692L452.723 159.15L458.729 154.272V154.261Z" fill="#F7F7F7" stroke="#D3D3D3" stroke-width="0.846781" stroke-miterlimit="10"/>
<path id="AL" d="M452.734 173.782C451.176 176.808 450.6 180.376 448.399 182.961C447.021 184.576 445.057 185.682 442.968 186.021C443.092 187.274 443.013 188.629 443.149 189.86C443.171 190.063 443.182 190.3 443.036 190.435C442.934 190.526 442.776 190.537 442.64 190.548C440.947 190.672 439.265 190.774 437.571 190.876C437.503 190.977 437.436 191.079 437.368 191.169L423.063 189.464V184.971H416.831L416.91 174.956L423.514 171.253L426.54 171.603L432.332 176.582L444.086 175.961L452.734 173.771V173.782Z" fill="#F7F7F7" stroke="#D3D3D3" stroke-width="0.846781" stroke-miterlimit="10"/>
<path id="SE" d="M437.357 191.181C434.433 195.527 430.165 198.734 426.834 202.798C426.541 203.148 426.27 203.521 426.033 203.916L422.081 202.527L415.578 197.718V189.972H423.063V189.487L437.368 191.192L437.357 191.181Z" fill="#F7F7F7" stroke="#D3D3D3" stroke-width="0.846781" stroke-miterlimit="10"/>
<path id="BA" d="M426.032 203.916C425.886 204.142 425.773 204.379 425.682 204.627C425.174 205.948 425.321 207.665 424.181 208.511C423.808 208.782 423.345 208.918 422.973 209.189C421.708 210.137 422.103 212.113 421.742 213.648C421.279 215.568 419.552 216.878 417.948 218.018C415.352 219.847 412.608 221.744 409.447 222.049C408.713 222.128 407.787 222.207 407.482 222.895C407.189 223.584 407.753 224.295 408.115 224.95C408.577 225.786 408.735 226.791 408.555 227.739V253.108C407.685 254.587 406.094 255.66 405.032 257.004C403.102 259.431 403.226 262.841 403.079 265.946C403.045 266.555 403 267.188 402.785 267.775C402.492 268.554 401.916 269.197 401.51 269.931C399.805 272.912 401.058 276.751 400.087 280.059H394.002C391.472 277.496 385.093 270.71 384.935 267.696C384.755 263.936 393.222 259.408 393.324 257.805C393.414 256.213 380.995 244.629 380.995 244.629L372.426 244.912L363.766 238.318L348.975 237.753L348.038 231.16L333.349 241.423L324.035 242.089L323.674 236.907L324.701 236.929L325.051 210.227L325.243 194.929L317.656 195.064L327.399 183.639L334.862 183.955L339.333 192.355L348.817 188.008L355.185 180.692L349.359 174.188L376.727 174.606L382.542 168.374L385.466 168.995L391.01 176.887L404.727 165.845L416.842 175.013L416.921 174.979L416.842 184.993H423.074V189.972H415.589V197.718L422.092 202.527L426.044 203.916H426.032Z" fill="#F7F7F7" stroke="#D3D3D3" stroke-width="0.846781" stroke-miterlimit="10"/>
<path id="ES" d="M393.787 281.967C393.426 285.896 392.918 289.904 392.613 293.81C392.41 296.373 392.206 298.936 391.653 301.443C391.371 302.685 390.998 303.915 390.276 304.965C389.531 306.06 388.447 306.873 387.555 307.867C386.403 309.165 385.613 310.769 385.285 312.462C385.048 313.682 385.014 315.003 384.269 316.007C383.422 317.136 381.921 317.486 380.532 317.769C379.516 317.972 378.489 318.175 377.461 318.378C377.461 318.48 377.461 318.604 377.461 318.706C373.893 315.623 369.072 311.57 367.65 310.373C367.379 310.148 367.232 310.023 367.232 310.023L366.758 303.057L373.543 302.493L378.443 290.435L379.008 277.349L384.382 277.168L393.787 281.955V281.967Z" fill="#F7F7F7" stroke="#D3D3D3" stroke-width="0.846781" stroke-miterlimit="10"/>
<path id="PA" d="M300.449 120.435L293.314 126.204L302.899 127.435L288.639 162.119L273.928 178.535L195.076 167.313L186.439 148.661L186.077 149.587L181.098 139.967L209.55 86.7104L183.593 76.3232L176.39 59.2634L180.116 46.0423C183.368 46.0084 186.619 45.9971 189.927 46.0987C191.598 45.0036 193.179 44.0665 194.748 42.8358C199.502 42.5987 204.097 42.2826 208.839 41.8423C209.257 41.8084 209.697 41.7519 210.024 41.5035C210.397 41.21 210.566 40.7358 210.657 40.2729C210.882 39.2906 210.894 38.2519 210.713 37.2696C210.657 36.9422 210.578 36.5922 210.713 36.2874C210.815 36.0616 211.007 35.8922 211.221 35.7567C212.565 34.8535 214.292 34.7632 215.907 34.8761C217.521 34.989 219.147 35.2938 220.75 35.068C222.071 34.8874 223.291 34.3567 224.589 34.0857C224.77 34.0519 224.95 34.0067 225.131 33.9841L225.323 45.0713L234.107 44.9471L257.139 77.1361L263.586 77.2603V68.8376L278.726 54.9617C278.06 57.7166 278.343 60.7085 279.562 63.2602C281.267 63.994 283.254 63.215 285.038 63.7231C286.088 64.0279 286.957 64.7618 287.962 65.1795C289.102 65.6763 290.378 65.7666 291.631 65.8231C295.007 65.9812 298.372 66.0263 301.759 65.9247C301.183 67.6973 299.433 68.7812 298.135 70.136C295.549 72.8006 294.601 76.9442 295.775 80.4555C296.057 81.291 296.475 82.1264 297.22 82.5781C298.078 83.1087 299.185 82.9958 300.122 82.6232C301.669 82.0023 302.877 80.67 303.565 79.1458C304.243 77.6329 304.435 75.9054 304.299 74.2457C304.231 73.4215 304.141 72.4731 304.706 71.8635C305.315 71.2312 306.331 71.3215 307.19 71.4344C310.87 71.9199 314.585 72.0441 318.288 71.807C319.462 71.728 320.761 71.6489 321.664 72.4167C322.082 72.7667 322.353 73.2748 322.612 73.7603C323.425 75.2732 324.238 76.7635 325.04 78.2764C325.254 78.2764 325.457 78.3103 325.672 78.3329L317.78 106.401L300.449 120.424V120.435Z" fill="#F7F7F7" stroke="#D3D3D3" stroke-width="0.846781" stroke-miterlimit="10"/>
<path id="TO" d="M317.644 195.042L325.231 194.906L325.04 210.205L311.739 217.419L298.451 217.318L294.307 213.276L290.152 212.96L286.009 218.763L278.433 214.303L278.952 203.826L272.629 209.844L270.518 209.121L270.01 199.434L275.204 178.716L273.928 178.535L288.639 162.119L302.899 127.435L293.313 126.204L300.449 120.435L309.651 127.299L310.057 151.687L315.612 155.616H322.522V163.067H316.018L315.883 171.874L322.115 183.39L327.388 183.616L317.644 195.042Z" fill="#F7F7F7" stroke="#D3D3D3" stroke-width="0.846781" stroke-miterlimit="10"/>
<path id="MG" d="M394.002 280.036H393.945C393.9 280.68 393.844 281.323 393.787 281.967L384.382 277.18L379.008 277.36L378.443 290.446L373.543 302.504L366.758 303.069L367.232 310.035C367.232 310.035 367.379 310.159 367.65 310.385C358.482 326.406 340.666 327.275 334.693 327.083C333.79 326.349 332.966 325.977 332.966 325.977L321.562 331.554L315.375 332.288L315.251 315.917L308.465 299.67L289.791 299.794L279.731 292.399L268.813 291.496L268.87 290.818L281.876 278.083L305.044 277.947L306.128 266.973L312.496 256.27L312.417 252.375L312.248 244.11L312.225 243.139H317.509L317.103 236.771L323.662 236.884L324.024 242.066L333.338 241.4L348.027 231.137L348.964 237.731L363.755 238.295L372.414 244.889L380.984 244.607C380.984 244.607 393.414 256.191 393.313 257.783C393.211 259.386 384.743 263.913 384.924 267.673C385.082 270.688 391.461 277.473 393.99 280.036H394.002Z" fill="#F7F7F7" stroke="#D3D3D3" stroke-width="0.846781" stroke-miterlimit="10"/>
<path id="DF" d="M312.417 252.386H297.841V240.779L312.248 244.121L312.417 252.386Z" fill="#7A34F3" stroke="#D3D3D3" stroke-width="0.846781" stroke-miterlimit="10"/>
<path id="RJ" d="M377.427 325.898C377.393 326.677 377.326 327.478 376.93 328.133C376.411 328.969 375.429 329.386 374.503 329.714C371.059 330.911 367.006 331.825 365.313 335.054C364.963 335.743 364.703 336.556 364.059 337.007C363.529 337.369 362.851 337.425 362.219 337.47C357.488 337.73 352.758 337.787 348.038 337.628C345.622 337.549 343.149 337.437 340.88 338.261C339.808 338.667 338.791 339.266 337.685 339.57C336.714 339.819 335.709 339.819 334.704 339.819C333.959 339.819 333.214 339.819 332.469 339.819C334.207 337.538 336.804 333.778 336.974 331.441C337.109 329.477 335.845 327.998 334.704 327.094C340.677 327.286 358.493 326.417 367.661 310.396C369.072 311.581 373.893 315.635 377.472 318.728C377.371 321.099 377.574 323.549 377.438 325.909L377.427 325.898Z" fill="#67A95E" stroke="#D3D3D3" stroke-width="0.846781" stroke-miterlimit="10"/>
<path id="SP" d="M336.962 331.441C336.804 333.779 334.196 337.538 332.458 339.819C331.34 339.819 330.222 339.819 329.104 339.819C328.562 339.819 327.953 339.842 327.535 340.192C327.174 340.496 327.038 340.993 326.858 341.433C325.887 343.748 323.324 345.001 320.851 345.396C318.378 345.803 315.827 345.566 313.354 345.961C310.882 346.356 308.307 347.575 307.303 349.867C306.896 350.805 306.783 351.854 306.433 352.814C305.722 354.734 304.107 356.145 302.549 357.477C301.228 358.606 299.93 359.724 298.62 360.853L295.696 357.601L288.515 357.748L278.489 334.433L256.134 323.595L247.836 323.245C251.652 320.456 255.333 318.017 258.291 316.538L258.709 305.699L264.941 296.757L268.317 297.435L268.802 291.473L279.72 292.377L289.78 299.772L308.454 299.648L315.24 315.895L315.364 332.266L321.551 331.532L332.954 325.954C332.954 325.954 333.779 326.327 334.682 327.061C335.822 327.975 337.087 329.454 336.951 331.408L336.962 331.441Z" fill="#F7F7F7" stroke="#D3D3D3" stroke-width="0.846781" stroke-miterlimit="10"/>
<path id="MS" d="M268.813 291.496L268.328 297.457L264.952 296.78L258.72 305.722L258.302 316.561C255.344 318.04 251.652 320.478 247.847 323.267C240.328 328.732 232.312 335.529 228.394 338.927V338.893C225.436 340.474 221.845 342.021 218.594 342.867V327.58C217.352 327.795 216.268 328.02 215.015 327.975C214.789 327.975 214.529 327.953 214.36 327.806C214.213 327.682 214.157 327.501 214.111 327.32C213.919 326.677 213.784 326.011 213.705 325.345C212.723 325.322 211.752 325.311 210.781 325.299C210.498 325.299 210.216 325.299 210.002 325.119C209.663 324.825 209.731 324.317 209.618 323.888C209.313 322.793 207.89 322.567 206.75 322.556C201.568 322.454 196.385 322.251 191.214 321.912C190.943 321.89 190.661 321.867 190.435 321.698C190.3 321.585 190.21 321.416 190.131 321.257C189.611 320.196 189.374 319.011 189.453 317.825C189.543 316.256 190.164 314.799 190.672 313.343C191.214 311.785 191.395 310.419 191.463 308.793V280.307L199.919 264.038L213.05 262.999L222.026 267.481L230.663 268.859L236.534 262.649V271.975L245.86 273.352V273.307L267.989 291.439L268.836 291.507L268.813 291.496Z" fill="#F7F7F7" stroke="#D3D3D3" stroke-width="0.846781" stroke-miterlimit="10"/>
<path id="SC" d="M295.346 363.675C294.601 364.308 293.867 364.94 293.122 365.572C291.665 366.825 290.096 368.316 290.096 370.235V395.955C287.488 397.603 285.083 399.658 283.57 402.356C283.017 403.35 282.52 404.423 281.684 405.19C280.894 405.913 279.878 406.297 279.02 406.952L277.676 395.289L252.205 380.521L227.118 380.193C230.561 378.488 233.429 375.971 235.473 372.753V368.372L251.787 368.598C251.787 368.598 264.659 378.353 271.173 366.566L284.71 366.984L295.335 363.687L295.346 363.675Z" fill="#F7F7F7" stroke="#D3D3D3" stroke-width="0.846781" stroke-miterlimit="10"/>
<path id="PR" d="M298.62 360.875C297.525 361.813 296.43 362.75 295.335 363.675L284.71 366.972L271.173 366.554C264.658 378.353 251.787 368.587 251.787 368.587L235.473 368.361V362.919H228.371V338.938C232.289 335.54 240.305 328.743 247.824 323.278L256.123 323.628L278.478 334.467L288.504 357.782L295.685 357.635L298.609 360.887L298.62 360.875Z" fill="#F7F7F7" stroke="#D3D3D3" stroke-width="0.846781" stroke-miterlimit="10"/>
<path id="RS" d="M279.02 406.94C279.02 406.94 278.941 406.997 278.907 407.031C275.712 409.582 276.547 415.081 273.544 417.881C272.675 418.682 271.58 419.179 270.676 419.924C267.109 422.837 267.334 428.595 264.162 431.937C262.322 433.868 259.634 434.681 257.184 435.742C254.373 436.95 251.607 438.712 250.229 441.444C248.954 443.973 248.152 446.75 247.734 449.55C247.61 450.352 247.497 451.221 246.989 451.854C246.289 452.723 245.07 452.926 244.031 453.321C242.462 453.908 241.118 455.049 240.283 456.505C239.978 457.047 239.718 457.634 239.221 458.018C238.849 458.312 238.375 458.436 237.912 458.515C236.241 458.82 234.479 458.662 232.899 458.052C233.136 456.313 234.525 454.981 235.755 453.717C236.975 452.463 238.205 450.917 238.047 449.155C237.946 447.97 237.223 446.931 236.918 445.779C236.715 445.012 236.704 444.176 236.32 443.476C235.846 442.629 234.942 442.155 234.163 441.568C232.842 440.552 231.883 439.073 231.499 437.458C231.092 435.776 231.273 433.913 230.404 432.423C229.286 430.481 226.813 429.815 224.578 429.758C222.353 429.679 220.039 430.007 217.916 429.318C213.897 428.008 211.865 423.605 208.557 420.974C204.752 417.937 199.581 417.463 194.726 417.102C196.103 414.155 198.926 412.111 201.319 409.921C203.724 407.719 206.084 405.156 206.626 401.95C206.829 400.787 206.784 399.59 207.123 398.473C207.529 397.185 208.41 396.124 209.324 395.131C210.995 393.313 212.824 391.631 214.755 390.106C216.279 388.921 217.995 387.656 218.458 385.771C218.741 384.619 218.492 383.377 218.786 382.226C221.62 382.135 224.408 381.424 226.971 380.193H227.084L252.171 380.521L277.643 395.289L278.986 406.952L279.02 406.94Z" fill="#F7F7F7" stroke="#D3D3D3" stroke-width="0.846781" stroke-miterlimit="10"/>
<path id="GO" d="M325.04 210.205L324.69 236.907L323.662 236.884L317.103 236.771L317.509 243.139H312.225L312.248 244.11L297.841 240.768V252.375H312.417L312.496 256.27L306.128 266.973L305.044 277.947L281.877 278.083L268.87 290.818L268.814 291.496L267.967 291.428L245.838 273.296L244.799 253.312L271.049 219.124L270.518 209.121L272.618 209.844L278.952 203.826L278.433 214.303L285.998 218.763L290.141 212.96L294.285 213.265L298.428 217.307L311.706 217.408L325.006 210.194L325.04 210.205Z" fill="#F7F7F7" stroke="#D3D3D3" stroke-width="0.846781" stroke-miterlimit="10"/>
<path id="PI" d="M392.297 148.571L392.218 151.845L392.026 160.222L385.658 165.371L385.737 169.04L385.455 168.984L382.53 168.363L376.716 174.595L349.348 174.177L355.174 180.68L348.806 187.997L339.322 192.343L334.851 183.943L327.388 183.627L327.93 182.995L328.065 167.956C328.065 167.956 331.317 146.832 354.62 141.548H363.698V119.057L376.264 98.6782C378.748 99.0508 381.266 99.1524 383.795 99.2202L392.285 148.593L392.297 148.571Z" fill="#F7F7F7" stroke="#D3D3D3" stroke-width="0.846781" stroke-miterlimit="10"/>
</g>
<defs>
<clipPath id="clip0_670_2597">
<rect width="459.158" height="459.091" fill="white"/>
</clipPath>
</defs>
</svg>
