<svg width="388" height="307" viewBox="0 0 388 307" fill="none" xmlns="http://www.w3.org/2000/svg">
<rect width="388" height="307" fill="white"/>
<path d="M114.398 147V137.757L110.579 144.77H109.375L105.538 137.757V147H103.495V134.027H105.69L109.982 141.959L114.273 134.027H116.468V147H114.398ZM122.501 147V134.027H124.544V147H122.501ZM132.628 137.828V147H130.585V134.027H132.263L139.614 143.404V134.045H141.675V147H139.882L132.628 137.828ZM147.699 147V134.027H149.742V147H147.699ZM163.457 137.079C163.177 136.769 162.701 136.472 162.029 136.187C161.357 135.901 160.664 135.758 159.95 135.758C159.106 135.758 158.472 135.916 158.05 136.231C157.634 136.54 157.426 136.981 157.426 137.552C157.426 137.73 157.449 137.891 157.497 138.033C157.545 138.176 157.604 138.304 157.675 138.417C157.753 138.524 157.866 138.628 158.014 138.729C158.163 138.83 158.309 138.917 158.452 138.988C158.6 139.059 158.8 139.137 159.049 139.22C159.305 139.297 159.543 139.366 159.763 139.425C159.983 139.479 160.272 139.55 160.629 139.639C161.2 139.776 161.687 139.913 162.092 140.05C162.496 140.181 162.886 140.35 163.261 140.558C163.635 140.761 163.936 140.99 164.162 141.245C164.388 141.495 164.566 141.801 164.697 142.164C164.834 142.527 164.902 142.94 164.902 143.404C164.902 143.922 164.819 144.389 164.652 144.805C164.492 145.222 164.269 145.572 163.983 145.858C163.698 146.143 163.353 146.384 162.948 146.581C162.544 146.771 162.11 146.911 161.646 147C161.182 147.083 160.682 147.125 160.147 147.125C159.159 147.125 158.205 146.976 157.283 146.679C156.361 146.375 155.531 145.941 154.794 145.376L155.73 143.619C156.105 144.005 156.715 144.38 157.559 144.743C158.41 145.1 159.284 145.278 160.182 145.278C160.991 145.278 161.613 145.135 162.047 144.85C162.487 144.564 162.707 144.154 162.707 143.619C162.707 143.404 162.675 143.211 162.609 143.039C162.544 142.866 162.431 142.711 162.27 142.575C162.11 142.432 161.943 142.31 161.771 142.209C161.604 142.108 161.363 142.004 161.048 141.897C160.739 141.79 160.453 141.7 160.191 141.629C159.936 141.558 159.588 141.465 159.147 141.352C158.463 141.174 157.898 140.993 157.452 140.808C157.006 140.624 156.611 140.398 156.266 140.13C155.927 139.862 155.68 139.547 155.525 139.184C155.371 138.816 155.293 138.381 155.293 137.882C155.293 137.257 155.412 136.695 155.65 136.195C155.894 135.69 156.227 135.274 156.649 134.946C157.072 134.619 157.568 134.369 158.139 134.197C158.71 134.024 159.332 133.938 160.004 133.938C161.598 133.938 163.058 134.426 164.385 135.401L163.457 137.079ZM179.58 135.839H175.271V147H173.201V135.839H168.874V134.027H179.58V135.839ZM189.69 132.689L188.37 132.288L189.414 130.28H191.332L189.69 132.689ZM193.322 145.189V147H184.426V134.027H193.161V135.839H186.469V139.523H192.26V141.227H186.469V145.189H193.322ZM198.542 147V134.027H204.19C204.755 134.027 205.29 134.149 205.796 134.393C206.307 134.637 206.736 134.958 207.081 135.357C207.426 135.755 207.699 136.207 207.902 136.713C208.104 137.219 208.205 137.73 208.205 138.248C208.205 139.128 207.973 139.925 207.509 140.639C207.045 141.346 206.432 141.822 205.671 142.066L208.722 147H206.42L203.601 142.485H200.586V147H198.542ZM200.586 140.674H204.172C204.737 140.674 205.204 140.439 205.573 139.969C205.942 139.494 206.126 138.92 206.126 138.248C206.126 137.587 205.918 137.022 205.502 136.552C205.085 136.077 204.603 135.839 204.056 135.839H200.586V140.674ZM213.729 147V134.027H215.772V147H213.729ZM220.993 140.514C220.993 139.657 221.151 138.83 221.466 138.033C221.787 137.23 222.221 136.529 222.768 135.928C223.316 135.327 223.979 134.845 224.758 134.482C225.537 134.12 226.364 133.938 227.238 133.938C228.137 133.938 228.978 134.129 229.763 134.509C230.548 134.89 231.203 135.392 231.726 136.017C232.256 136.636 232.672 137.34 232.975 138.132C233.279 138.917 233.43 139.717 233.43 140.532C233.43 141.388 233.27 142.215 232.948 143.012C232.633 143.809 232.205 144.508 231.664 145.109C231.122 145.709 230.462 146.191 229.683 146.554C228.904 146.911 228.077 147.089 227.203 147.089C226.477 147.089 225.787 146.97 225.133 146.732C224.478 146.488 223.902 146.155 223.402 145.733C222.908 145.311 222.477 144.823 222.108 144.27C221.745 143.717 221.469 143.119 221.278 142.477C221.088 141.828 220.993 141.174 220.993 140.514ZM227.221 145.242C227.851 145.242 228.431 145.106 228.96 144.832C229.49 144.558 229.924 144.198 230.263 143.752C230.602 143.3 230.864 142.795 231.048 142.236C231.238 141.677 231.334 141.103 231.334 140.514C231.334 139.901 231.232 139.312 231.03 138.747C230.834 138.176 230.56 137.674 230.209 137.239C229.864 136.799 229.43 136.451 228.907 136.195C228.389 135.934 227.827 135.803 227.221 135.803C226.59 135.803 226.007 135.94 225.472 136.213C224.942 136.481 224.505 136.838 224.16 137.284C223.815 137.73 223.548 138.233 223.357 138.792C223.167 139.351 223.072 139.925 223.072 140.514C223.072 141.335 223.235 142.102 223.563 142.816C223.896 143.529 224.383 144.112 225.026 144.564C225.668 145.016 226.4 145.242 227.221 145.242ZM246.281 147V134.027H250.885C251.902 134.027 252.815 134.197 253.624 134.536C254.438 134.869 255.105 135.333 255.622 135.928C256.14 136.517 256.532 137.201 256.8 137.98C257.073 138.753 257.21 139.592 257.21 140.496C257.21 142.459 256.633 144.035 255.479 145.225C254.331 146.408 252.8 147 250.885 147H246.281ZM250.885 135.839H248.324V145.189H250.885C251.777 145.189 252.544 144.984 253.186 144.573C253.835 144.157 254.319 143.598 254.641 142.896C254.962 142.194 255.122 141.394 255.122 140.496C255.122 139.11 254.745 137.989 253.989 137.132C253.24 136.27 252.205 135.839 250.885 135.839ZM265.75 134.027H267.686L272.727 147H270.568L269.203 143.476H264.198L262.841 147H260.664L265.75 134.027ZM268.801 141.959L266.714 136.276L264.563 141.959H268.801ZM284.934 137.079C284.654 136.769 284.178 136.472 283.506 136.187C282.834 135.901 282.141 135.758 281.427 135.758C280.583 135.758 279.949 135.916 279.527 136.231C279.111 136.54 278.902 136.981 278.902 137.552C278.902 137.73 278.926 137.891 278.974 138.033C279.021 138.176 279.081 138.304 279.152 138.417C279.23 138.524 279.343 138.628 279.491 138.729C279.64 138.83 279.786 138.917 279.928 138.988C280.077 139.059 280.276 139.137 280.526 139.22C280.782 139.297 281.02 139.366 281.24 139.425C281.46 139.479 281.749 139.55 282.105 139.639C282.676 139.776 283.164 139.913 283.569 140.05C283.973 140.181 284.363 140.35 284.737 140.558C285.112 140.761 285.413 140.99 285.639 141.245C285.865 141.495 286.043 141.801 286.174 142.164C286.311 142.527 286.379 142.94 286.379 143.404C286.379 143.922 286.296 144.389 286.129 144.805C285.969 145.222 285.746 145.572 285.46 145.858C285.175 146.143 284.83 146.384 284.425 146.581C284.021 146.771 283.586 146.911 283.123 147C282.659 147.083 282.159 147.125 281.624 147.125C280.636 147.125 279.682 146.976 278.76 146.679C277.838 146.375 277.008 145.941 276.27 145.376L277.207 143.619C277.582 144.005 278.192 144.38 279.036 144.743C279.887 145.1 280.761 145.278 281.659 145.278C282.468 145.278 283.09 145.135 283.524 144.85C283.964 144.564 284.184 144.154 284.184 143.619C284.184 143.404 284.152 143.211 284.086 143.039C284.021 142.866 283.908 142.711 283.747 142.575C283.586 142.432 283.42 142.31 283.247 142.209C283.081 142.108 282.84 142.004 282.525 141.897C282.215 141.79 281.93 141.7 281.668 141.629C281.412 141.558 281.065 141.465 280.624 141.352C279.94 141.174 279.375 140.993 278.929 140.808C278.483 140.624 278.088 140.398 277.743 140.13C277.404 139.862 277.157 139.547 277.002 139.184C276.847 138.816 276.77 138.381 276.77 137.882C276.77 137.257 276.889 136.695 277.127 136.195C277.371 135.69 277.704 135.274 278.126 134.946C278.549 134.619 279.045 134.369 279.616 134.197C280.187 134.024 280.809 133.938 281.481 133.938C283.075 133.938 284.535 134.426 285.862 135.401L284.934 137.079Z" fill="black"/>
<path d="M152.991 160.956C154.21 160.956 155.287 161.212 156.22 161.723C157.154 162.235 157.85 162.922 158.308 163.784L155.587 165.72C155.468 165.417 155.307 165.158 155.105 164.944C154.903 164.724 154.677 164.558 154.427 164.445C154.177 164.326 153.927 164.242 153.678 164.195C153.434 164.141 153.181 164.114 152.919 164.114C152.431 164.114 151.994 164.216 151.608 164.418C151.221 164.614 150.912 164.879 150.68 165.212C150.454 165.539 150.281 165.899 150.162 166.291C150.043 166.684 149.984 167.091 149.984 167.514C149.984 168.459 150.255 169.268 150.796 169.94C151.337 170.613 152.057 170.949 152.955 170.949C153.306 170.949 153.642 170.901 153.963 170.806C154.284 170.705 154.591 170.532 154.882 170.288C155.179 170.039 155.397 169.729 155.533 169.361L158.442 171.091C158.198 171.704 157.77 172.245 157.157 172.715C156.55 173.185 155.875 173.536 155.132 173.768C154.388 173.994 153.639 174.107 152.884 174.107C151.956 174.107 151.078 173.914 150.252 173.527C149.431 173.141 148.738 172.635 148.173 172.01C147.614 171.38 147.17 170.663 146.843 169.86C146.522 169.051 146.362 168.233 146.362 167.407C146.362 166.61 146.513 165.83 146.817 165.069C147.126 164.302 147.554 163.612 148.101 162.999C148.655 162.387 149.356 161.893 150.207 161.518C151.057 161.143 151.985 160.956 152.991 160.956ZM162.815 174V161.027H166.375V174H162.815ZM171.721 174V161.027H176.708C177.755 161.027 178.698 161.197 179.536 161.536C180.381 161.869 181.068 162.333 181.597 162.928C182.133 163.517 182.54 164.201 182.82 164.98C183.105 165.753 183.248 166.592 183.248 167.496C183.248 169.459 182.65 171.035 181.455 172.225C180.265 173.408 178.683 174 176.708 174H171.721ZM176.708 164.132H175.281V170.895H176.708C177.618 170.895 178.332 170.58 178.849 169.949C179.373 169.319 179.635 168.501 179.635 167.496C179.635 166.479 179.373 165.664 178.849 165.051C178.326 164.439 177.612 164.132 176.708 164.132ZM190.387 161.027H194.366L198.497 174H194.884L194.099 171.457H190.637L189.869 174H186.238L190.387 161.027ZM193.528 169.084L192.377 164.516L191.172 169.084H193.528ZM202.683 174V161.027H207.67C208.717 161.027 209.66 161.197 210.499 161.536C211.343 161.869 212.03 162.333 212.56 162.928C213.095 163.517 213.502 164.201 213.782 164.98C214.067 165.753 214.21 166.592 214.21 167.496C214.21 169.459 213.612 171.035 212.417 172.225C211.227 173.408 209.645 174 207.67 174H202.683ZM207.67 164.132H206.243V170.895H207.67C208.58 170.895 209.294 170.58 209.812 169.949C210.335 169.319 210.597 168.501 210.597 167.496C210.597 166.479 210.335 165.664 209.812 165.051C209.288 164.439 208.574 164.132 207.67 164.132ZM228.112 170.895V174H218.869V161.027H227.951V164.132H222.429V165.961H227.148V168.843H222.429V170.895H228.112ZM240.738 165.265C240.685 165.236 240.613 165.194 240.524 165.14C240.435 165.087 240.253 164.992 239.98 164.855C239.706 164.718 239.438 164.599 239.177 164.498C238.915 164.391 238.609 164.296 238.258 164.213C237.913 164.123 237.595 164.079 237.303 164.079C236.607 164.079 236.259 164.293 236.259 164.721C236.259 164.816 236.274 164.903 236.304 164.98C236.34 165.057 236.399 165.129 236.482 165.194C236.566 165.259 236.646 165.316 236.723 165.364C236.806 165.411 236.931 165.465 237.098 165.524C237.264 165.584 237.407 165.631 237.526 165.667C237.645 165.703 237.827 165.759 238.07 165.836C238.314 165.908 238.514 165.967 238.668 166.015C239.192 166.175 239.635 166.333 239.998 166.488C240.366 166.642 240.723 166.833 241.068 167.059C241.413 167.279 241.69 167.523 241.898 167.79C242.106 168.058 242.27 168.382 242.389 168.763C242.514 169.138 242.576 169.563 242.576 170.039C242.576 170.639 242.481 171.181 242.29 171.662C242.1 172.144 241.847 172.54 241.532 172.849C241.223 173.152 240.851 173.405 240.417 173.607C239.983 173.81 239.537 173.952 239.079 174.036C238.627 174.119 238.148 174.161 237.642 174.161C236.708 174.161 235.73 174.024 234.707 173.75C233.684 173.471 232.783 173.102 232.003 172.644L233.538 169.521C233.597 169.563 233.678 169.616 233.779 169.682C233.886 169.741 234.1 169.854 234.421 170.021C234.748 170.181 235.07 170.324 235.385 170.449C235.7 170.574 236.072 170.69 236.5 170.797C236.934 170.898 237.336 170.949 237.705 170.949C238.395 170.949 238.74 170.758 238.74 170.378C238.74 170.235 238.695 170.11 238.606 170.003C238.516 169.89 238.368 169.789 238.16 169.7C237.951 169.604 237.749 169.527 237.553 169.468C237.363 169.402 237.089 169.319 236.732 169.218C236.381 169.111 236.09 169.019 235.858 168.941C234.692 168.549 233.85 168.079 233.333 167.532C232.821 166.978 232.566 166.235 232.566 165.301C232.566 164.605 232.696 163.975 232.958 163.41C233.226 162.845 233.583 162.384 234.029 162.027C234.481 161.67 234.995 161.396 235.572 161.206C236.149 161.016 236.762 160.92 237.41 160.92C238.796 160.92 240.417 161.387 242.273 162.321L240.738 165.265Z" fill="black"/>
</svg>
