<svg width="388" height="307" viewBox="0 0 388 307" fill="none" xmlns="http://www.w3.org/2000/svg">
<rect width="388" height="307" fill="white"/>
<path d="M120.947 135V125.757L117.128 132.77H115.924L112.088 125.757V135H110.044V122.027H112.239L116.531 129.959L120.822 122.027H123.017V135H120.947ZM129.05 135V122.027H131.093V135H129.05ZM139.178 125.828V135H137.134V122.027H138.812L146.163 131.404V122.045H148.224V135H146.431L139.178 125.828ZM154.248 135V122.027H156.291V135H154.248ZM170.006 125.079C169.726 124.769 169.251 124.472 168.578 124.187C167.906 123.901 167.213 123.758 166.5 123.758C165.655 123.758 165.021 123.916 164.599 124.231C164.183 124.54 163.975 124.981 163.975 125.552C163.975 125.73 163.998 125.891 164.046 126.033C164.094 126.176 164.153 126.304 164.224 126.417C164.302 126.524 164.415 126.628 164.563 126.729C164.712 126.83 164.858 126.917 165.001 126.988C165.149 127.059 165.349 127.137 165.598 127.22C165.854 127.297 166.092 127.366 166.312 127.425C166.532 127.479 166.821 127.55 167.178 127.639C167.749 127.776 168.236 127.913 168.641 128.05C169.045 128.181 169.435 128.35 169.81 128.558C170.184 128.761 170.485 128.99 170.711 129.245C170.937 129.495 171.115 129.801 171.246 130.164C171.383 130.527 171.451 130.94 171.451 131.404C171.451 131.922 171.368 132.389 171.201 132.805C171.041 133.222 170.818 133.572 170.532 133.858C170.247 134.143 169.902 134.384 169.497 134.581C169.093 134.771 168.659 134.911 168.195 135C167.731 135.083 167.231 135.125 166.696 135.125C165.708 135.125 164.754 134.976 163.832 134.679C162.91 134.375 162.08 133.941 161.343 133.376L162.279 131.619C162.654 132.005 163.264 132.38 164.108 132.743C164.959 133.1 165.833 133.278 166.732 133.278C167.54 133.278 168.162 133.135 168.596 132.85C169.036 132.564 169.256 132.154 169.256 131.619C169.256 131.404 169.224 131.211 169.158 131.039C169.093 130.866 168.98 130.711 168.819 130.575C168.659 130.432 168.492 130.31 168.32 130.209C168.153 130.108 167.912 130.004 167.597 129.897C167.288 129.79 167.002 129.7 166.74 129.629C166.485 129.558 166.137 129.465 165.697 129.352C165.013 129.174 164.447 128.993 164.001 128.808C163.555 128.624 163.16 128.398 162.815 128.13C162.476 127.862 162.229 127.547 162.074 127.184C161.92 126.816 161.842 126.381 161.842 125.882C161.842 125.257 161.961 124.695 162.199 124.195C162.443 123.69 162.776 123.274 163.198 122.946C163.621 122.619 164.117 122.369 164.688 122.197C165.259 122.024 165.881 121.938 166.553 121.938C168.147 121.938 169.607 122.426 170.934 123.401L170.006 125.079ZM186.129 123.839H181.82V135H179.75V123.839H175.423V122.027H186.129V123.839ZM196.239 120.689L194.919 120.288L195.963 118.28H197.881L196.239 120.689ZM199.871 133.189V135H190.975V122.027H199.71V123.839H193.019V127.523H198.809V129.227H193.019V133.189H199.871ZM205.091 135V122.027H210.739C211.304 122.027 211.839 122.149 212.345 122.393C212.857 122.637 213.285 122.958 213.63 123.357C213.975 123.755 214.248 124.207 214.451 124.713C214.653 125.219 214.754 125.73 214.754 126.248C214.754 127.128 214.522 127.925 214.058 128.639C213.594 129.346 212.981 129.822 212.22 130.066L215.271 135H212.97L210.15 130.485H207.135V135H205.091ZM207.135 128.674H210.721C211.286 128.674 211.753 128.439 212.122 127.969C212.491 127.494 212.675 126.92 212.675 126.248C212.675 125.587 212.467 125.022 212.051 124.552C211.634 124.077 211.152 123.839 210.605 123.839H207.135V128.674ZM220.278 135V122.027H222.321V135H220.278ZM227.542 128.514C227.542 127.657 227.7 126.83 228.015 126.033C228.336 125.23 228.77 124.529 229.318 123.928C229.865 123.327 230.528 122.845 231.307 122.482C232.086 122.12 232.913 121.938 233.787 121.938C234.686 121.938 235.527 122.129 236.312 122.509C237.098 122.89 237.752 123.392 238.275 124.017C238.805 124.636 239.221 125.34 239.524 126.132C239.828 126.917 239.979 127.717 239.979 128.532C239.979 129.388 239.819 130.215 239.498 131.012C239.182 131.809 238.754 132.508 238.213 133.109C237.672 133.709 237.011 134.191 236.232 134.554C235.453 134.911 234.626 135.089 233.752 135.089C233.026 135.089 232.336 134.97 231.682 134.732C231.028 134.488 230.451 134.155 229.951 133.733C229.457 133.311 229.026 132.823 228.657 132.27C228.294 131.717 228.018 131.119 227.828 130.477C227.637 129.828 227.542 129.174 227.542 128.514ZM233.77 133.242C234.4 133.242 234.98 133.106 235.509 132.832C236.039 132.558 236.473 132.198 236.812 131.752C237.151 131.3 237.413 130.795 237.597 130.236C237.787 129.677 237.883 129.103 237.883 128.514C237.883 127.901 237.782 127.312 237.579 126.747C237.383 126.176 237.109 125.674 236.758 125.239C236.414 124.799 235.979 124.451 235.456 124.195C234.938 123.934 234.376 123.803 233.77 123.803C233.139 123.803 232.556 123.94 232.021 124.213C231.492 124.481 231.054 124.838 230.709 125.284C230.364 125.73 230.097 126.233 229.906 126.792C229.716 127.351 229.621 127.925 229.621 128.514C229.621 129.335 229.784 130.102 230.112 130.816C230.445 131.529 230.932 132.112 231.575 132.564C232.217 133.016 232.949 133.242 233.77 133.242ZM252.83 135V122.027H257.434C258.451 122.027 259.364 122.197 260.173 122.536C260.988 122.869 261.654 123.333 262.171 123.928C262.689 124.517 263.081 125.201 263.349 125.98C263.622 126.753 263.759 127.592 263.759 128.496C263.759 130.459 263.182 132.035 262.028 133.225C260.88 134.408 259.349 135 257.434 135H252.83ZM257.434 123.839H254.873V133.189H257.434C258.326 133.189 259.093 132.984 259.735 132.573C260.384 132.157 260.869 131.598 261.19 130.896C261.511 130.194 261.672 129.394 261.672 128.496C261.672 127.11 261.294 125.989 260.538 125.132C259.789 124.27 258.754 123.839 257.434 123.839ZM272.299 122.027H274.235L279.276 135H277.117L275.752 131.476H270.747L269.39 135H267.214L272.299 122.027ZM275.35 129.959L273.263 124.276L271.112 129.959H275.35Z" fill="black"/>
<path d="M67.0186 154.594H72.354V161.5H69.4097V160.42C68.4937 161.2 67.429 161.589 66.2156 161.589C65.3651 161.589 64.5591 161.438 63.7978 161.134C63.0424 160.825 62.3732 160.394 61.7903 159.841C61.2134 159.281 60.7554 158.577 60.4164 157.726C60.0773 156.875 59.9078 155.936 59.9078 154.907C59.9078 154.008 60.0803 153.161 60.4253 152.364C60.7703 151.567 61.2372 150.883 61.826 150.312C62.4149 149.735 63.1197 149.28 63.9405 148.947C64.7673 148.608 65.6417 148.438 66.5636 148.438C67.7354 148.438 68.7941 148.691 69.7398 149.197C70.6856 149.702 71.3904 150.392 71.8544 151.266L69.2134 153.292C68.9636 152.78 68.58 152.37 68.0625 152.061C67.545 151.751 67.0008 151.597 66.4298 151.597C65.5852 151.597 64.8892 151.918 64.342 152.56C63.8008 153.203 63.5301 154.026 63.5301 155.032C63.5301 156.049 63.8037 156.869 64.351 157.494C64.9041 158.119 65.6268 158.431 66.519 158.431C67.5361 158.431 68.4521 158.006 69.267 157.155H67.0186V154.594ZM86.4611 158.395V161.5H77.2179V148.527H86.3005V151.632H80.7778V153.461H85.4975V156.343H80.7778V158.395H86.4611ZM99.0871 152.765C99.0336 152.736 98.9622 152.694 98.873 152.64C98.7838 152.587 98.6024 152.492 98.3288 152.355C98.0552 152.218 97.7875 152.099 97.5258 151.998C97.2641 151.891 96.9578 151.796 96.6068 151.713C96.2618 151.623 95.9436 151.579 95.6522 151.579C94.9563 151.579 94.6083 151.793 94.6083 152.221C94.6083 152.316 94.6232 152.403 94.6529 152.48C94.6886 152.557 94.7481 152.629 94.8313 152.694C94.9146 152.759 94.9949 152.816 95.0722 152.864C95.1555 152.911 95.2804 152.965 95.447 153.024C95.6135 153.084 95.7563 153.131 95.8752 153.167C95.9942 153.203 96.1756 153.259 96.4195 153.336C96.6633 153.408 96.8626 153.467 97.0172 153.515C97.5407 153.675 97.9838 153.833 98.3466 153.988C98.7154 154.142 99.0723 154.333 99.4173 154.559C99.7622 154.779 100.039 155.023 100.247 155.29C100.455 155.558 100.619 155.882 100.738 156.263C100.863 156.638 100.925 157.063 100.925 157.539C100.925 158.139 100.83 158.681 100.64 159.162C100.449 159.644 100.196 160.04 99.8812 160.349C99.5719 160.652 99.2001 160.905 98.7659 161.107C98.3317 161.31 97.8856 161.452 97.4276 161.536C96.9756 161.619 96.4968 161.661 95.9912 161.661C95.0574 161.661 94.0789 161.524 93.0559 161.25C92.0328 160.971 91.1317 160.602 90.3525 160.144L91.8871 157.021C91.9466 157.063 92.0269 157.116 92.128 157.182C92.235 157.241 92.4492 157.354 92.7704 157.521C93.0975 157.681 93.4187 157.824 93.7339 157.949C94.0492 158.074 94.4209 158.19 94.8492 158.297C95.2834 158.398 95.6849 158.449 96.0537 158.449C96.7436 158.449 97.0886 158.258 97.0886 157.878C97.0886 157.735 97.044 157.61 96.9548 157.503C96.8656 157.39 96.7169 157.289 96.5087 157.2C96.3005 157.104 96.0983 157.027 95.902 156.968C95.7116 156.902 95.438 156.819 95.0812 156.718C94.7302 156.611 94.4388 156.519 94.2068 156.441C93.041 156.049 92.1994 155.579 91.6819 155.032C91.1704 154.478 90.9146 153.735 90.9146 152.801C90.9146 152.105 91.0454 151.475 91.3072 150.91C91.5748 150.345 91.9317 149.884 92.3778 149.527C92.8298 149.17 93.3443 148.896 93.9213 148.706C94.4983 148.516 95.1109 148.42 95.7592 148.42C97.1451 148.42 98.7659 148.887 100.622 149.821L99.0871 152.765ZM115.71 151.632H111.99V161.5H108.421V151.632H104.674V148.527H115.71V151.632ZM122.742 146.805C122.588 146.805 122.454 146.835 122.341 146.895C122.228 146.954 122.144 147.023 122.091 147.1C122.037 147.177 121.996 147.266 121.966 147.368C121.936 147.463 121.918 147.534 121.912 147.582C121.907 147.623 121.904 147.659 121.904 147.689H120.057C120.057 147.546 120.083 147.365 120.137 147.145C120.196 146.918 120.292 146.669 120.422 146.395C120.559 146.121 120.72 145.869 120.904 145.637C121.095 145.399 121.338 145.2 121.636 145.039C121.933 144.878 122.254 144.798 122.599 144.798C122.867 144.798 123.123 144.849 123.367 144.95C123.611 145.045 123.81 145.152 123.965 145.271C124.119 145.384 124.295 145.491 124.491 145.592C124.687 145.687 124.878 145.735 125.062 145.735C125.211 145.735 125.344 145.705 125.463 145.646C125.582 145.58 125.672 145.506 125.731 145.423C125.791 145.339 125.838 145.25 125.874 145.155C125.915 145.054 125.942 144.976 125.954 144.923C125.966 144.863 125.972 144.822 125.972 144.798H127.801C127.801 144.899 127.771 145.054 127.712 145.262C127.652 145.47 127.554 145.717 127.417 146.002C127.281 146.282 127.117 146.547 126.927 146.797C126.736 147.04 126.486 147.252 126.177 147.43C125.868 147.603 125.538 147.689 125.187 147.689C124.937 147.689 124.69 147.644 124.446 147.555C124.208 147.46 124.009 147.359 123.849 147.252C123.694 147.139 123.515 147.037 123.313 146.948C123.111 146.853 122.921 146.805 122.742 146.805ZM121.939 148.527H125.918L130.049 161.5H126.436L125.651 158.957H122.189L121.422 161.5H117.79L121.939 148.527ZM125.08 156.584L123.929 152.016L122.724 156.584H125.08ZM133.004 154.996C133.004 154.145 133.17 153.324 133.504 152.533C133.837 151.736 134.292 151.037 134.869 150.437C135.446 149.836 136.147 149.357 136.974 149C137.807 148.637 138.693 148.456 139.633 148.456C140.585 148.456 141.477 148.646 142.31 149.027C143.142 149.402 143.835 149.901 144.388 150.526C144.948 151.145 145.385 151.849 145.7 152.64C146.021 153.432 146.182 154.24 146.182 155.067C146.182 155.912 146.015 156.73 145.682 157.521C145.355 158.312 144.903 159.011 144.326 159.617C143.755 160.218 143.053 160.7 142.22 161.063C141.388 161.426 140.501 161.607 139.562 161.607C138.61 161.607 137.718 161.42 136.885 161.045C136.058 160.67 135.365 160.174 134.806 159.555C134.247 158.936 133.807 158.232 133.486 157.44C133.165 156.643 133.004 155.829 133.004 154.996ZM139.597 158.449C140.091 158.449 140.531 158.351 140.918 158.154C141.31 157.952 141.623 157.684 141.855 157.351C142.087 157.018 142.262 156.652 142.381 156.254C142.5 155.855 142.559 155.436 142.559 154.996C142.559 154.389 142.452 153.836 142.238 153.336C142.03 152.837 141.694 152.426 141.23 152.105C140.772 151.778 140.222 151.614 139.579 151.614C139.086 151.614 138.646 151.713 138.259 151.909C137.872 152.105 137.563 152.367 137.331 152.694C137.099 153.021 136.924 153.384 136.805 153.782C136.686 154.181 136.626 154.597 136.626 155.032C136.626 155.478 136.686 155.903 136.805 156.307C136.93 156.706 137.111 157.069 137.349 157.396C137.587 157.717 137.899 157.973 138.286 158.163C138.672 158.354 139.11 158.449 139.597 158.449ZM167.249 158.395V161.5H158.006V148.527H167.089V151.632H161.566V153.461H166.286V156.343H161.566V158.395H167.249ZM179.226 161.5V148.527H184.213C185.26 148.527 186.203 148.697 187.041 149.036C187.886 149.369 188.573 149.833 189.102 150.428C189.638 151.017 190.045 151.701 190.325 152.48C190.61 153.253 190.753 154.092 190.753 154.996C190.753 156.959 190.155 158.535 188.959 159.725C187.77 160.908 186.188 161.5 184.213 161.5H179.226ZM184.213 151.632H182.785V158.395H184.213C185.123 158.395 185.837 158.08 186.354 157.449C186.878 156.819 187.139 156.001 187.139 154.996C187.139 153.979 186.878 153.164 186.354 152.551C185.831 151.939 185.117 151.632 184.213 151.632ZM197.892 148.527H201.871L206.002 161.5H202.389L201.603 158.957H198.142L197.374 161.5H193.743L197.892 148.527ZM201.032 156.584L199.881 152.016L198.677 156.584H201.032ZM216.863 161.5V148.527H220.423V161.5H216.863ZM229.328 155.121V161.5H225.768V148.527H228.543L233.754 155.121V148.527H237.313V161.5H234.485L229.328 155.121ZM241.936 154.996C241.936 154.145 242.103 153.324 242.436 152.533C242.769 151.736 243.224 151.037 243.801 150.437C244.378 149.836 245.08 149.357 245.907 149C246.74 148.637 247.626 148.456 248.566 148.456C249.517 148.456 250.409 148.646 251.242 149.027C252.075 149.402 252.768 149.901 253.321 150.526C253.88 151.145 254.317 151.849 254.632 152.64C254.954 153.432 255.114 154.24 255.114 155.067C255.114 155.912 254.948 156.73 254.615 157.521C254.288 158.312 253.835 159.011 253.259 159.617C252.687 160.218 251.986 160.7 251.153 161.063C250.32 161.426 249.434 161.607 248.494 161.607C247.542 161.607 246.65 161.42 245.818 161.045C244.991 160.67 244.298 160.174 243.739 159.555C243.18 158.936 242.739 158.232 242.418 157.44C242.097 156.643 241.936 155.829 241.936 154.996ZM248.53 158.449C249.024 158.449 249.464 158.351 249.85 158.154C250.243 157.952 250.555 157.684 250.787 157.351C251.019 157.018 251.195 156.652 251.314 156.254C251.432 155.855 251.492 155.436 251.492 154.996C251.492 154.389 251.385 153.836 251.171 153.336C250.963 152.837 250.627 152.426 250.163 152.105C249.705 151.778 249.154 151.614 248.512 151.614C248.018 151.614 247.578 151.713 247.192 151.909C246.805 152.105 246.496 152.367 246.264 152.694C246.032 153.021 245.856 153.384 245.737 153.782C245.618 154.181 245.559 154.597 245.559 155.032C245.559 155.478 245.618 155.903 245.737 156.307C245.862 156.706 246.044 157.069 246.282 157.396C246.519 157.717 246.832 157.973 247.218 158.163C247.605 158.354 248.042 158.449 248.53 158.449ZM261.736 148.527L264.27 157.387L266.777 148.527H270.524L266.045 161.5H262.503L257.971 148.527H261.736ZM276.557 148.527H280.536L284.667 161.5H281.053L280.268 158.957H276.807L276.039 161.5H272.408L276.557 148.527ZM279.697 156.584L278.546 152.016L277.342 156.584H279.697ZM299.702 158.591C299.387 159.365 298.81 160.01 297.971 160.528C297.132 161.045 296.204 161.381 295.187 161.536C295.782 162.13 296.079 162.77 296.079 163.454C296.079 164.037 295.889 164.528 295.508 164.926C295.134 165.325 294.587 165.524 293.867 165.524C293.141 165.524 292.389 165.316 291.61 164.899L292.413 163.124C292.68 163.356 292.972 163.472 293.287 163.472C293.513 163.472 293.697 163.406 293.84 163.275C293.983 163.151 294.054 162.978 294.054 162.758C294.054 162.383 293.822 161.982 293.358 161.554C292.526 161.452 291.746 161.194 291.021 160.777C290.301 160.355 289.694 159.841 289.201 159.234C288.713 158.621 288.326 157.94 288.041 157.191C287.761 156.435 287.621 155.674 287.621 154.907C287.621 154.11 287.773 153.33 288.076 152.569C288.386 151.802 288.814 151.112 289.361 150.499C289.914 149.887 290.616 149.393 291.467 149.018C292.317 148.643 293.245 148.456 294.25 148.456C295.47 148.456 296.546 148.712 297.48 149.223C298.414 149.735 299.11 150.422 299.568 151.284L296.847 153.22C296.728 152.917 296.567 152.658 296.365 152.444C296.163 152.224 295.937 152.058 295.687 151.945C295.437 151.826 295.187 151.742 294.937 151.695C294.694 151.641 294.441 151.614 294.179 151.614C293.691 151.614 293.254 151.716 292.868 151.918C292.481 152.114 292.172 152.379 291.94 152.712C291.714 153.039 291.541 153.399 291.422 153.791C291.303 154.184 291.244 154.591 291.244 155.014C291.244 155.959 291.514 156.768 292.056 157.44C292.597 158.113 293.317 158.449 294.215 158.449C294.566 158.449 294.902 158.401 295.223 158.306C295.544 158.205 295.85 158.032 296.142 157.788C296.439 157.539 296.656 157.229 296.793 156.861L299.702 158.591ZM307.679 146.805C307.525 146.805 307.391 146.835 307.278 146.895C307.165 146.954 307.082 147.023 307.028 147.1C306.975 147.177 306.933 147.266 306.903 147.368C306.874 147.463 306.856 147.534 306.85 147.582C306.844 147.623 306.841 147.659 306.841 147.689H304.994C304.994 147.546 305.021 147.365 305.074 147.145C305.134 146.918 305.229 146.669 305.36 146.395C305.497 146.121 305.657 145.869 305.842 145.637C306.032 145.399 306.276 145.2 306.573 145.039C306.871 144.878 307.192 144.798 307.537 144.798C307.804 144.798 308.06 144.849 308.304 144.95C308.548 145.045 308.747 145.152 308.902 145.271C309.056 145.384 309.232 145.491 309.428 145.592C309.624 145.687 309.815 145.735 309.999 145.735C310.148 145.735 310.282 145.705 310.401 145.646C310.52 145.58 310.609 145.506 310.668 145.423C310.728 145.339 310.775 145.25 310.811 145.155C310.853 145.054 310.88 144.976 310.891 144.923C310.903 144.863 310.909 144.822 310.909 144.798H312.738C312.738 144.899 312.709 145.054 312.649 145.262C312.59 145.47 312.491 145.717 312.355 146.002C312.218 146.282 312.054 146.547 311.864 146.797C311.674 147.04 311.424 147.252 311.114 147.43C310.805 147.603 310.475 147.689 310.124 147.689C309.874 147.689 309.627 147.644 309.384 147.555C309.146 147.46 308.946 147.359 308.786 147.252C308.631 147.139 308.453 147.037 308.25 146.948C308.048 146.853 307.858 146.805 307.679 146.805ZM306.876 148.527H310.856L314.987 161.5H311.373L310.588 158.957H307.126L306.359 161.5H302.728L306.876 148.527ZM310.017 156.584L308.866 152.016L307.662 156.584H310.017ZM317.941 154.996C317.941 154.145 318.108 153.324 318.441 152.533C318.774 151.736 319.229 151.037 319.806 150.437C320.383 149.836 321.085 149.357 321.911 149C322.744 148.637 323.63 148.456 324.57 148.456C325.522 148.456 326.414 148.646 327.247 149.027C328.08 149.402 328.772 149.901 329.326 150.526C329.885 151.145 330.322 151.849 330.637 152.64C330.958 153.432 331.119 154.24 331.119 155.067C331.119 155.912 330.952 156.73 330.619 157.521C330.292 158.312 329.84 159.011 329.263 159.617C328.692 160.218 327.99 160.7 327.158 161.063C326.325 161.426 325.439 161.607 324.499 161.607C323.547 161.607 322.655 161.42 321.822 161.045C320.995 160.67 320.303 160.174 319.743 159.555C319.184 158.936 318.744 158.232 318.423 157.44C318.102 156.643 317.941 155.829 317.941 154.996ZM324.535 158.449C325.028 158.449 325.468 158.351 325.855 158.154C326.248 157.952 326.56 157.684 326.792 157.351C327.024 157.018 327.199 156.652 327.318 156.254C327.437 155.855 327.497 155.436 327.497 154.996C327.497 154.389 327.39 153.836 327.175 153.336C326.967 152.837 326.631 152.426 326.167 152.105C325.709 151.778 325.159 151.614 324.517 151.614C324.023 151.614 323.583 151.713 323.196 151.909C322.81 152.105 322.5 152.367 322.268 152.694C322.036 153.021 321.861 153.384 321.742 153.782C321.623 154.181 321.564 154.597 321.564 155.032C321.564 155.478 321.623 155.903 321.742 156.307C321.867 156.706 322.048 157.069 322.286 157.396C322.524 157.717 322.836 157.973 323.223 158.163C323.61 158.354 324.047 158.449 324.535 158.449Z" fill="black"/>
<path d="M66.8391 184.895V188H57.5959V175.027H66.6785V178.132H61.1558V179.961H65.8755V182.843H61.1558V184.895H66.8391ZM81.419 188V181.166L79.2421 185.975H77.3417L75.1647 181.166V188H71.6048V175.027H75.4948L78.2874 181.13L81.1068 175.027H84.9789V188H81.419ZM105.377 179.265C105.324 179.236 105.253 179.194 105.163 179.14C105.074 179.087 104.893 178.992 104.619 178.855C104.345 178.718 104.078 178.599 103.816 178.498C103.554 178.391 103.248 178.296 102.897 178.213C102.552 178.123 102.234 178.079 101.942 178.079C101.247 178.079 100.899 178.293 100.899 178.721C100.899 178.816 100.913 178.903 100.943 178.98C100.979 179.057 101.038 179.129 101.122 179.194C101.205 179.259 101.285 179.316 101.363 179.364C101.446 179.411 101.571 179.465 101.737 179.524C101.904 179.584 102.047 179.631 102.166 179.667C102.284 179.703 102.466 179.759 102.71 179.836C102.954 179.908 103.153 179.967 103.308 180.015C103.831 180.175 104.274 180.333 104.637 180.488C105.006 180.642 105.363 180.833 105.708 181.059C106.053 181.279 106.329 181.523 106.537 181.79C106.745 182.058 106.909 182.382 107.028 182.763C107.153 183.138 107.215 183.563 107.215 184.039C107.215 184.639 107.12 185.181 106.93 185.662C106.74 186.144 106.487 186.54 106.172 186.849C105.862 187.152 105.49 187.405 105.056 187.607C104.622 187.81 104.176 187.952 103.718 188.036C103.266 188.119 102.787 188.161 102.282 188.161C101.348 188.161 100.369 188.024 99.3462 187.75C98.3231 187.471 97.422 187.102 96.6428 186.644L98.1774 183.521C98.2369 183.563 98.3172 183.616 98.4183 183.682C98.5254 183.741 98.7395 183.854 99.0607 184.021C99.3878 184.181 99.709 184.324 100.024 184.449C100.34 184.574 100.711 184.69 101.14 184.797C101.574 184.898 101.975 184.949 102.344 184.949C103.034 184.949 103.379 184.758 103.379 184.378C103.379 184.235 103.334 184.11 103.245 184.003C103.156 183.89 103.007 183.789 102.799 183.7C102.591 183.604 102.389 183.527 102.192 183.468C102.002 183.402 101.728 183.319 101.371 183.218C101.021 183.111 100.729 183.019 100.497 182.941C99.3313 182.549 98.4897 182.079 97.9722 181.532C97.4607 180.978 97.2049 180.235 97.2049 179.301C97.2049 178.605 97.3358 177.975 97.5975 177.41C97.8651 176.845 98.222 176.384 98.6681 176.027C99.1202 175.67 99.6347 175.396 100.212 175.206C100.789 175.016 101.401 174.92 102.05 174.92C103.435 174.92 105.056 175.387 106.912 176.321L105.377 179.265ZM121.144 184.895V188H111.901V175.027H120.983V178.132H115.461V179.961H120.18V182.843H115.461V184.895H121.144ZM125.91 188V175.027H131.87C132.482 175.027 133.065 175.158 133.618 175.42C134.172 175.682 134.636 176.024 135.01 176.446C135.385 176.868 135.682 177.35 135.902 177.891C136.123 178.427 136.233 178.971 136.233 179.524C136.233 180.274 136.066 180.975 135.733 181.63C135.406 182.284 134.951 182.816 134.368 183.227L137.107 188H133.199L130.915 184.021H129.47V188H125.91ZM129.47 180.907H131.718C131.95 180.907 132.158 180.782 132.343 180.532C132.527 180.277 132.619 179.94 132.619 179.524C132.619 179.108 132.515 178.772 132.307 178.516C132.099 178.26 131.873 178.132 131.629 178.132H129.47V180.907ZM143.354 175.027L145.888 183.887L148.395 175.027H152.142L147.663 188H144.121L139.589 175.027H143.354ZM156.23 188V175.027H159.789V188H156.23ZM176.502 185.091C176.187 185.865 175.61 186.51 174.771 187.028C173.932 187.545 173.004 187.881 171.987 188.036C172.582 188.63 172.879 189.27 172.879 189.954C172.879 190.537 172.689 191.028 172.308 191.426C171.934 191.825 171.387 192.024 170.667 192.024C169.941 192.024 169.189 191.816 168.41 191.399L169.213 189.624C169.48 189.856 169.772 189.972 170.087 189.972C170.313 189.972 170.497 189.906 170.64 189.775C170.783 189.651 170.854 189.478 170.854 189.258C170.854 188.883 170.622 188.482 170.158 188.054C169.326 187.952 168.546 187.694 167.821 187.277C167.101 186.855 166.494 186.341 166.001 185.734C165.513 185.121 165.126 184.44 164.841 183.691C164.561 182.935 164.421 182.174 164.421 181.407C164.421 180.61 164.573 179.83 164.876 179.069C165.186 178.302 165.614 177.612 166.161 176.999C166.714 176.387 167.416 175.893 168.267 175.518C169.117 175.143 170.045 174.956 171.05 174.956C172.27 174.956 173.346 175.212 174.28 175.723C175.214 176.235 175.91 176.922 176.368 177.784L173.647 179.72C173.528 179.417 173.367 179.158 173.165 178.944C172.963 178.724 172.737 178.558 172.487 178.445C172.237 178.326 171.987 178.242 171.737 178.195C171.494 178.141 171.241 178.114 170.979 178.114C170.491 178.114 170.054 178.216 169.668 178.418C169.281 178.614 168.972 178.879 168.74 179.212C168.514 179.539 168.341 179.899 168.222 180.291C168.103 180.684 168.044 181.091 168.044 181.514C168.044 182.459 168.314 183.268 168.856 183.94C169.397 184.613 170.117 184.949 171.015 184.949C171.366 184.949 171.702 184.901 172.023 184.806C172.344 184.705 172.65 184.532 172.942 184.288C173.239 184.039 173.456 183.729 173.593 183.361L176.502 185.091ZM179.965 181.496C179.965 180.645 180.132 179.824 180.465 179.033C180.798 178.236 181.253 177.537 181.83 176.937C182.407 176.336 183.108 175.857 183.935 175.5C184.768 175.137 185.654 174.956 186.594 174.956C187.546 174.956 188.438 175.146 189.271 175.527C190.103 175.902 190.796 176.401 191.349 177.026C191.909 177.645 192.346 178.349 192.661 179.14C192.982 179.932 193.143 180.74 193.143 181.567C193.143 182.412 192.976 183.23 192.643 184.021C192.316 184.812 191.864 185.511 191.287 186.117C190.716 186.718 190.014 187.2 189.181 187.563C188.349 187.926 187.462 188.107 186.523 188.107C185.571 188.107 184.679 187.92 183.846 187.545C183.019 187.17 182.326 186.674 181.767 186.055C181.208 185.436 180.768 184.732 180.447 183.94C180.126 183.143 179.965 182.329 179.965 181.496ZM186.558 184.949C187.052 184.949 187.492 184.851 187.879 184.654C188.271 184.452 188.584 184.184 188.816 183.851C189.048 183.518 189.223 183.152 189.342 182.754C189.461 182.355 189.52 181.936 189.52 181.496C189.52 180.889 189.413 180.336 189.199 179.836C188.991 179.337 188.655 178.926 188.191 178.605C187.733 178.278 187.183 178.114 186.54 178.114C186.047 178.114 185.607 178.213 185.22 178.409C184.833 178.605 184.524 178.867 184.292 179.194C184.06 179.521 183.885 179.884 183.766 180.282C183.647 180.681 183.587 181.097 183.587 181.532C183.587 181.978 183.647 182.403 183.766 182.807C183.891 183.206 184.072 183.569 184.31 183.896C184.548 184.217 184.86 184.473 185.247 184.663C185.633 184.854 186.071 184.949 186.558 184.949ZM205.51 179.265C205.457 179.236 205.385 179.194 205.296 179.14C205.207 179.087 205.025 178.992 204.752 178.855C204.478 178.718 204.21 178.599 203.949 178.498C203.687 178.391 203.381 178.296 203.03 178.213C202.685 178.123 202.367 178.079 202.075 178.079C201.379 178.079 201.031 178.293 201.031 178.721C201.031 178.816 201.046 178.903 201.076 178.98C201.112 179.057 201.171 179.129 201.254 179.194C201.338 179.259 201.418 179.316 201.495 179.364C201.578 179.411 201.703 179.465 201.87 179.524C202.036 179.584 202.179 179.631 202.298 179.667C202.417 179.703 202.599 179.759 202.842 179.836C203.086 179.908 203.286 179.967 203.44 180.015C203.964 180.175 204.407 180.333 204.77 180.488C205.138 180.642 205.495 180.833 205.84 181.059C206.185 181.279 206.462 181.523 206.67 181.79C206.878 182.058 207.042 182.382 207.161 182.763C207.286 183.138 207.348 183.563 207.348 184.039C207.348 184.639 207.253 185.181 207.063 185.662C206.872 186.144 206.619 186.54 206.304 186.849C205.995 187.152 205.623 187.405 205.189 187.607C204.755 187.81 204.309 187.952 203.851 188.036C203.399 188.119 202.92 188.161 202.414 188.161C201.48 188.161 200.502 188.024 199.479 187.75C198.456 187.471 197.555 187.102 196.775 186.644L198.31 183.521C198.37 183.563 198.45 183.616 198.551 183.682C198.658 183.741 198.872 183.854 199.193 184.021C199.52 184.181 199.842 184.324 200.157 184.449C200.472 184.574 200.844 184.69 201.272 184.797C201.706 184.898 202.108 184.949 202.477 184.949C203.167 184.949 203.512 184.758 203.512 184.378C203.512 184.235 203.467 184.11 203.378 184.003C203.289 183.89 203.14 183.789 202.932 183.7C202.723 183.604 202.521 183.527 202.325 183.468C202.135 183.402 201.861 183.319 201.504 183.218C201.153 183.111 200.862 183.019 200.63 182.941C199.464 182.549 198.622 182.079 198.105 181.532C197.593 180.978 197.338 180.235 197.338 179.301C197.338 178.605 197.468 177.975 197.73 177.41C197.998 176.845 198.355 176.384 198.801 176.027C199.253 175.67 199.767 175.396 200.344 175.206C200.921 175.016 201.534 174.92 202.182 174.92C203.568 174.92 205.189 175.387 207.045 176.321L205.51 179.265ZM219.244 188V175.027H224.838C225.451 175.027 226.034 175.158 226.587 175.42C227.14 175.682 227.604 176.024 227.979 176.446C228.353 176.868 228.651 177.35 228.871 177.891C229.091 178.427 229.201 178.971 229.201 179.524C229.201 180.101 229.097 180.66 228.889 181.201C228.68 181.743 228.392 182.222 228.023 182.638C227.66 183.054 227.208 183.39 226.667 183.646C226.126 183.896 225.546 184.021 224.927 184.021H222.804V188H219.244ZM222.804 180.907H224.686C224.936 180.907 225.147 180.797 225.32 180.577C225.498 180.357 225.587 180.006 225.587 179.524C225.587 179.036 225.486 178.682 225.284 178.462C225.088 178.242 224.859 178.132 224.597 178.132H222.804V180.907ZM240.498 174.474L238.303 173.894L239.213 171.298H242.3L240.498 174.474ZM239.4 188.107C238.591 188.107 237.857 187.994 237.196 187.768C236.542 187.542 235.989 187.233 235.537 186.84C235.091 186.448 234.716 185.978 234.413 185.43C234.109 184.883 233.889 184.3 233.752 183.682C233.616 183.057 233.547 182.394 233.547 181.692V175.027H237.116V181.692C237.116 182.138 237.158 182.552 237.241 182.932C237.33 183.313 237.461 183.658 237.634 183.967C237.812 184.271 238.05 184.511 238.347 184.69C238.651 184.862 239.002 184.949 239.4 184.949C239.805 184.949 240.158 184.859 240.462 184.681C240.765 184.503 241.003 184.259 241.176 183.949C241.354 183.634 241.485 183.289 241.568 182.914C241.657 182.534 241.702 182.126 241.702 181.692V175.027H245.262V181.692C245.262 182.614 245.143 183.459 244.905 184.226C244.667 184.993 244.313 185.668 243.843 186.251C243.379 186.834 242.767 187.289 242.005 187.616C241.25 187.943 240.382 188.107 239.4 188.107ZM256.799 188H250.42V175.027H257.95C258.533 175.027 259.054 175.194 259.512 175.527C259.976 175.854 260.324 176.268 260.556 176.767C260.788 177.267 260.904 177.796 260.904 178.355C260.904 178.992 260.743 179.587 260.422 180.14C260.101 180.687 259.643 181.091 259.048 181.353C259.815 181.579 260.407 181.969 260.823 182.522C261.246 183.075 261.457 183.792 261.457 184.672C261.457 185.237 261.335 185.737 261.091 186.171C260.853 186.605 260.517 186.953 260.083 187.215C259.654 187.477 259.164 187.673 258.611 187.804C258.057 187.935 257.454 188 256.799 188ZM253.98 178.061V180.051H256.416C256.695 180.051 256.924 179.976 257.103 179.827C257.287 179.673 257.379 179.411 257.379 179.042C257.379 178.709 257.299 178.462 257.138 178.302C256.978 178.141 256.773 178.061 256.523 178.061H253.98ZM256.924 182.825H253.98V185.002H256.799C257.103 185.002 257.35 184.91 257.54 184.726C257.736 184.535 257.834 184.274 257.834 183.94C257.834 183.619 257.748 183.355 257.576 183.146C257.403 182.932 257.186 182.825 256.924 182.825ZM266.142 188V175.027H269.702V184.895H275.591V188H266.142ZM279.937 188V175.027H283.497V188H279.937ZM294.758 174.956C295.977 174.956 297.054 175.212 297.988 175.723C298.921 176.235 299.617 176.922 300.075 177.784L297.354 179.72C297.235 179.417 297.075 179.158 296.872 178.944C296.67 178.724 296.444 178.558 296.194 178.445C295.944 178.326 295.695 178.242 295.445 178.195C295.201 178.141 294.948 178.114 294.686 178.114C294.199 178.114 293.762 178.216 293.375 178.418C292.988 178.614 292.679 178.879 292.447 179.212C292.221 179.539 292.049 179.899 291.93 180.291C291.811 180.684 291.751 181.091 291.751 181.514C291.751 182.459 292.022 183.268 292.563 183.94C293.104 184.613 293.824 184.949 294.722 184.949C295.073 184.949 295.409 184.901 295.73 184.806C296.052 184.705 296.358 184.532 296.649 184.288C296.947 184.039 297.164 183.729 297.301 183.361L300.209 185.091C299.965 185.704 299.537 186.245 298.924 186.715C298.318 187.185 297.643 187.536 296.899 187.768C296.156 187.994 295.406 188.107 294.651 188.107C293.723 188.107 292.846 187.914 292.019 187.527C291.198 187.141 290.505 186.635 289.94 186.01C289.381 185.38 288.938 184.663 288.611 183.86C288.289 183.051 288.129 182.233 288.129 181.407C288.129 180.61 288.281 179.83 288.584 179.069C288.893 178.302 289.321 177.612 289.869 176.999C290.422 176.387 291.124 175.893 291.974 175.518C292.825 175.143 293.753 174.956 294.758 174.956ZM303.672 181.496C303.672 180.645 303.839 179.824 304.172 179.033C304.505 178.236 304.96 177.537 305.537 176.937C306.114 176.336 306.816 175.857 307.643 175.5C308.475 175.137 309.362 174.956 310.301 174.956C311.253 174.956 312.145 175.146 312.978 175.527C313.811 175.902 314.504 176.401 315.057 177.026C315.616 177.645 316.053 178.349 316.368 179.14C316.69 179.932 316.85 180.74 316.85 181.567C316.85 182.412 316.684 183.23 316.351 184.021C316.023 184.812 315.571 185.511 314.994 186.117C314.423 186.718 313.722 187.2 312.889 187.563C312.056 187.926 311.17 188.107 310.23 188.107C309.278 188.107 308.386 187.92 307.553 187.545C306.727 187.17 306.034 186.674 305.475 186.055C304.916 185.436 304.475 184.732 304.154 183.94C303.833 183.143 303.672 182.329 303.672 181.496ZM310.266 184.949C310.759 184.949 311.2 184.851 311.586 184.654C311.979 184.452 312.291 184.184 312.523 183.851C312.755 183.518 312.93 183.152 313.049 182.754C313.168 182.355 313.228 181.936 313.228 181.496C313.228 180.889 313.121 180.336 312.907 179.836C312.698 179.337 312.362 178.926 311.898 178.605C311.44 178.278 310.89 178.114 310.248 178.114C309.754 178.114 309.314 178.213 308.927 178.409C308.541 178.605 308.232 178.867 308 179.194C307.768 179.521 307.592 179.884 307.473 180.282C307.354 180.681 307.295 181.097 307.295 181.532C307.295 181.978 307.354 182.403 307.473 182.807C307.598 183.206 307.779 183.569 308.017 183.896C308.255 184.217 308.568 184.473 308.954 184.663C309.341 184.854 309.778 184.949 310.266 184.949ZM329.217 179.265C329.164 179.236 329.093 179.194 329.003 179.14C328.914 179.087 328.733 178.992 328.459 178.855C328.185 178.718 327.918 178.599 327.656 178.498C327.394 178.391 327.088 178.296 326.737 178.213C326.392 178.123 326.074 178.079 325.783 178.079C325.087 178.079 324.739 178.293 324.739 178.721C324.739 178.816 324.753 178.903 324.783 178.98C324.819 179.057 324.878 179.129 324.962 179.194C325.045 179.259 325.125 179.316 325.203 179.364C325.286 179.411 325.411 179.465 325.577 179.524C325.744 179.584 325.887 179.631 326.006 179.667C326.125 179.703 326.306 179.759 326.55 179.836C326.794 179.908 326.993 179.967 327.148 180.015C327.671 180.175 328.114 180.333 328.477 180.488C328.846 180.642 329.203 180.833 329.548 181.059C329.893 181.279 330.169 181.523 330.377 181.79C330.586 182.058 330.749 182.382 330.868 182.763C330.993 183.138 331.055 183.563 331.055 184.039C331.055 184.639 330.96 185.181 330.77 185.662C330.58 186.144 330.327 186.54 330.012 186.849C329.702 187.152 329.33 187.405 328.896 187.607C328.462 187.81 328.016 187.952 327.558 188.036C327.106 188.119 326.627 188.161 326.122 188.161C325.188 188.161 324.209 188.024 323.186 187.75C322.163 187.471 321.262 187.102 320.483 186.644L322.017 183.521C322.077 183.563 322.157 183.616 322.258 183.682C322.365 183.741 322.58 183.854 322.901 184.021C323.228 184.181 323.549 184.324 323.864 184.449C324.18 184.574 324.551 184.69 324.98 184.797C325.414 184.898 325.815 184.949 326.184 184.949C326.874 184.949 327.219 184.758 327.219 184.378C327.219 184.235 327.174 184.11 327.085 184.003C326.996 183.89 326.847 183.789 326.639 183.7C326.431 183.604 326.229 183.527 326.032 183.468C325.842 183.402 325.568 183.319 325.211 183.218C324.861 183.111 324.569 183.019 324.337 182.941C323.171 182.549 322.33 182.079 321.812 181.532C321.301 180.978 321.045 180.235 321.045 179.301C321.045 178.605 321.176 177.975 321.437 177.41C321.705 176.845 322.062 176.384 322.508 176.027C322.96 175.67 323.475 175.396 324.052 175.206C324.629 175.016 325.241 174.92 325.89 174.92C327.275 174.92 328.896 175.387 330.752 176.321L329.217 179.265Z" fill="black"/>
</svg>
