<svg width="388" height="307" viewBox="0 0 388 307" fill="none" xmlns="http://www.w3.org/2000/svg">
<rect width="388" height="307" fill="white"/>
<path d="M121.447 147V137.757L117.628 144.77H116.424L112.588 137.757V147H110.544V134.027H112.739L117.031 141.959L121.322 134.027H123.517V147H121.447ZM129.55 147V134.027H131.593V147H129.55ZM139.678 137.828V147H137.634V134.027H139.312L146.663 143.404V134.045H148.724V147H146.931L139.678 137.828ZM154.748 147V134.027H156.791V147H154.748ZM170.506 137.079C170.226 136.769 169.751 136.472 169.078 136.187C168.406 135.901 167.713 135.758 167 135.758C166.155 135.758 165.521 135.916 165.099 136.231C164.683 136.54 164.475 136.981 164.475 137.552C164.475 137.73 164.498 137.891 164.546 138.033C164.594 138.176 164.653 138.304 164.724 138.417C164.802 138.524 164.915 138.628 165.063 138.729C165.212 138.83 165.358 138.917 165.501 138.988C165.649 139.059 165.849 139.137 166.098 139.22C166.354 139.297 166.592 139.366 166.812 139.425C167.032 139.479 167.321 139.55 167.678 139.639C168.249 139.776 168.736 139.913 169.141 140.05C169.545 140.181 169.935 140.35 170.31 140.558C170.684 140.761 170.985 140.99 171.211 141.245C171.437 141.495 171.615 141.801 171.746 142.164C171.883 142.527 171.951 142.94 171.951 143.404C171.951 143.922 171.868 144.389 171.701 144.805C171.541 145.222 171.318 145.572 171.032 145.858C170.747 146.143 170.402 146.384 169.997 146.581C169.593 146.771 169.159 146.911 168.695 147C168.231 147.083 167.731 147.125 167.196 147.125C166.208 147.125 165.254 146.976 164.332 146.679C163.41 146.375 162.58 145.941 161.843 145.376L162.779 143.619C163.154 144.005 163.764 144.38 164.608 144.743C165.459 145.1 166.333 145.278 167.232 145.278C168.04 145.278 168.662 145.135 169.096 144.85C169.536 144.564 169.756 144.154 169.756 143.619C169.756 143.404 169.724 143.211 169.658 143.039C169.593 142.866 169.48 142.711 169.319 142.575C169.159 142.432 168.992 142.31 168.82 142.209C168.653 142.108 168.412 142.004 168.097 141.897C167.788 141.79 167.502 141.7 167.24 141.629C166.985 141.558 166.637 141.465 166.197 141.352C165.513 141.174 164.947 140.993 164.501 140.808C164.055 140.624 163.66 140.398 163.315 140.13C162.976 139.862 162.729 139.547 162.574 139.184C162.42 138.816 162.342 138.381 162.342 137.882C162.342 137.257 162.461 136.695 162.699 136.195C162.943 135.69 163.276 135.274 163.698 134.946C164.121 134.619 164.617 134.369 165.188 134.197C165.759 134.024 166.381 133.938 167.053 133.938C168.647 133.938 170.107 134.426 171.434 135.401L170.506 137.079ZM186.629 135.839H182.32V147H180.25V135.839H175.923V134.027H186.629V135.839ZM196.739 132.689L195.419 132.288L196.463 130.28H198.381L196.739 132.689ZM200.371 145.189V147H191.475V134.027H200.21V135.839H193.519V139.523H199.309V141.227H193.519V145.189H200.371ZM205.591 147V134.027H211.239C211.804 134.027 212.339 134.149 212.845 134.393C213.357 134.637 213.785 134.958 214.13 135.357C214.475 135.755 214.748 136.207 214.951 136.713C215.153 137.219 215.254 137.73 215.254 138.248C215.254 139.128 215.022 139.925 214.558 140.639C214.094 141.346 213.481 141.822 212.72 142.066L215.771 147H213.47L210.65 142.485H207.635V147H205.591ZM207.635 140.674H211.221C211.786 140.674 212.253 140.439 212.622 139.969C212.991 139.494 213.175 138.92 213.175 138.248C213.175 137.587 212.967 137.022 212.551 136.552C212.134 136.077 211.652 135.839 211.105 135.839H207.635V140.674ZM220.778 147V134.027H222.821V147H220.778ZM228.042 140.514C228.042 139.657 228.2 138.83 228.515 138.033C228.836 137.23 229.27 136.529 229.818 135.928C230.365 135.327 231.028 134.845 231.807 134.482C232.586 134.12 233.413 133.938 234.287 133.938C235.186 133.938 236.027 134.129 236.812 134.509C237.598 134.89 238.252 135.392 238.775 136.017C239.305 136.636 239.721 137.34 240.024 138.132C240.328 138.917 240.479 139.717 240.479 140.532C240.479 141.388 240.319 142.215 239.998 143.012C239.682 143.809 239.254 144.508 238.713 145.109C238.172 145.709 237.511 146.191 236.732 146.554C235.953 146.911 235.126 147.089 234.252 147.089C233.526 147.089 232.836 146.97 232.182 146.732C231.528 146.488 230.951 146.155 230.451 145.733C229.957 145.311 229.526 144.823 229.157 144.27C228.794 143.717 228.518 143.119 228.328 142.477C228.137 141.828 228.042 141.174 228.042 140.514ZM234.27 145.242C234.9 145.242 235.48 145.106 236.009 144.832C236.539 144.558 236.973 144.198 237.312 143.752C237.651 143.3 237.913 142.795 238.097 142.236C238.287 141.677 238.383 141.103 238.383 140.514C238.383 139.901 238.282 139.312 238.079 138.747C237.883 138.176 237.609 137.674 237.258 137.239C236.914 136.799 236.479 136.451 235.956 136.195C235.438 135.934 234.876 135.803 234.27 135.803C233.639 135.803 233.056 135.94 232.521 136.213C231.992 136.481 231.554 136.838 231.209 137.284C230.864 137.73 230.597 138.233 230.406 138.792C230.216 139.351 230.121 139.925 230.121 140.514C230.121 141.335 230.284 142.102 230.612 142.816C230.945 143.529 231.432 144.112 232.075 144.564C232.717 145.016 233.449 145.242 234.27 145.242ZM253.33 147V134.027H257.934C258.951 134.027 259.864 134.197 260.673 134.536C261.488 134.869 262.154 135.333 262.671 135.928C263.189 136.517 263.581 137.201 263.849 137.98C264.122 138.753 264.259 139.592 264.259 140.496C264.259 142.459 263.682 144.035 262.528 145.225C261.38 146.408 259.849 147 257.934 147H253.33ZM257.934 135.839H255.373V145.189H257.934C258.826 145.189 259.593 144.984 260.235 144.573C260.884 144.157 261.369 143.598 261.69 142.896C262.011 142.194 262.172 141.394 262.172 140.496C262.172 139.11 261.794 137.989 261.038 137.132C260.289 136.27 259.254 135.839 257.934 135.839ZM272.799 134.027H274.735L279.776 147H277.617L276.252 143.476H271.247L269.89 147H267.714L272.799 134.027ZM275.85 141.959L273.763 136.276L271.612 141.959H275.85Z" fill="black"/>
<path d="M149.877 160.956C151.096 160.956 152.173 161.212 153.107 161.723C154.04 162.235 154.736 162.922 155.194 163.784L152.473 165.72C152.354 165.417 152.194 165.158 151.991 164.944C151.789 164.724 151.563 164.558 151.313 164.445C151.063 164.326 150.814 164.242 150.564 164.195C150.32 164.141 150.067 164.114 149.805 164.114C149.318 164.114 148.881 164.216 148.494 164.418C148.107 164.614 147.798 164.879 147.566 165.212C147.34 165.539 147.168 165.899 147.049 166.291C146.93 166.684 146.87 167.091 146.87 167.514C146.87 168.459 147.141 169.268 147.682 169.94C148.223 170.613 148.943 170.949 149.841 170.949C150.192 170.949 150.528 170.901 150.849 170.806C151.171 170.705 151.477 170.532 151.768 170.288C152.066 170.039 152.283 169.729 152.42 169.361L155.328 171.091C155.084 171.704 154.656 172.245 154.043 172.715C153.437 173.185 152.762 173.536 152.018 173.768C151.275 173.994 150.525 174.107 149.77 174.107C148.842 174.107 147.965 173.914 147.138 173.527C146.317 173.141 145.624 172.635 145.059 172.01C144.5 171.38 144.057 170.663 143.73 169.86C143.408 169.051 143.248 168.233 143.248 167.407C143.248 166.61 143.399 165.83 143.703 165.069C144.012 164.302 144.44 163.612 144.988 162.999C145.541 162.387 146.243 161.893 147.093 161.518C147.944 161.143 148.872 160.956 149.877 160.956ZM165.367 174.107C164.558 174.107 163.823 173.994 163.163 173.768C162.509 173.542 161.956 173.233 161.504 172.84C161.058 172.448 160.683 171.978 160.379 171.43C160.076 170.883 159.856 170.3 159.719 169.682C159.582 169.057 159.514 168.394 159.514 167.692V161.027H163.083V167.692C163.083 168.138 163.124 168.552 163.208 168.932C163.297 169.313 163.428 169.658 163.6 169.967C163.779 170.271 164.017 170.511 164.314 170.69C164.617 170.862 164.968 170.949 165.367 170.949C165.771 170.949 166.125 170.859 166.429 170.681C166.732 170.503 166.97 170.259 167.142 169.949C167.321 169.634 167.452 169.289 167.535 168.914C167.624 168.534 167.669 168.126 167.669 167.692V161.027H171.229V167.692C171.229 168.614 171.11 169.459 170.872 170.226C170.634 170.993 170.28 171.668 169.81 172.251C169.346 172.834 168.733 173.289 167.972 173.616C167.217 173.943 166.348 174.107 165.367 174.107ZM176.387 174V161.027H179.947V170.895H185.835V174H176.387ZM198.551 164.132H194.83V174H191.261V164.132H187.514V161.027H198.551V164.132ZM208.625 174.107C207.816 174.107 207.081 173.994 206.421 173.768C205.767 173.542 205.214 173.233 204.762 172.84C204.316 172.448 203.941 171.978 203.638 171.43C203.334 170.883 203.114 170.3 202.977 169.682C202.841 169.057 202.772 168.394 202.772 167.692V161.027H206.341V167.692C206.341 168.138 206.383 168.552 206.466 168.932C206.555 169.313 206.686 169.658 206.858 169.967C207.037 170.271 207.275 170.511 207.572 170.69C207.875 170.862 208.226 170.949 208.625 170.949C209.029 170.949 209.383 170.859 209.687 170.681C209.99 170.503 210.228 170.259 210.4 169.949C210.579 169.634 210.71 169.289 210.793 168.914C210.882 168.534 210.927 168.126 210.927 167.692V161.027H214.487V167.692C214.487 168.614 214.368 169.459 214.13 170.226C213.892 170.993 213.538 171.668 213.068 172.251C212.604 172.834 211.992 173.289 211.23 173.616C210.475 173.943 209.606 174.107 208.625 174.107ZM219.645 174V161.027H225.605C226.218 161.027 226.8 161.158 227.354 161.42C227.907 161.682 228.371 162.024 228.745 162.446C229.12 162.868 229.418 163.35 229.638 163.891C229.858 164.427 229.968 164.971 229.968 165.524C229.968 166.274 229.801 166.975 229.468 167.63C229.141 168.284 228.686 168.816 228.103 169.227L230.842 174H226.934L224.65 170.021H223.205V174H219.645ZM223.205 166.907H225.453C225.685 166.907 225.893 166.782 226.078 166.532C226.262 166.277 226.354 165.94 226.354 165.524C226.354 165.108 226.25 164.772 226.042 164.516C225.834 164.26 225.608 164.132 225.364 164.132H223.205V166.907ZM238.079 161.027H242.059L246.189 174H242.576L241.791 171.457H238.329L237.562 174H233.931L238.079 161.027ZM241.22 169.084L240.069 164.516L238.864 169.084H241.22Z" fill="black"/>
</svg>
