<svg width="388" height="307" viewBox="0 0 388 307" fill="none" xmlns="http://www.w3.org/2000/svg">
<rect width="388" height="307" fill="white"/>
<path d="M121.447 147V137.757L117.628 144.77H116.424L112.588 137.757V147H110.544V134.027H112.739L117.031 141.959L121.322 134.027H123.517V147H121.447ZM129.55 147V134.027H131.593V147H129.55ZM139.678 137.828V147H137.634V134.027H139.312L146.663 143.404V134.045H148.724V147H146.931L139.678 137.828ZM154.748 147V134.027H156.791V147H154.748ZM170.506 137.079C170.226 136.769 169.751 136.472 169.078 136.187C168.406 135.901 167.713 135.758 167 135.758C166.155 135.758 165.521 135.916 165.099 136.231C164.683 136.54 164.475 136.981 164.475 137.552C164.475 137.73 164.498 137.891 164.546 138.033C164.594 138.176 164.653 138.304 164.724 138.417C164.802 138.524 164.915 138.628 165.063 138.729C165.212 138.83 165.358 138.917 165.501 138.988C165.649 139.059 165.849 139.137 166.098 139.22C166.354 139.297 166.592 139.366 166.812 139.425C167.032 139.479 167.321 139.55 167.678 139.639C168.249 139.776 168.736 139.913 169.141 140.05C169.545 140.181 169.935 140.35 170.31 140.558C170.684 140.761 170.985 140.99 171.211 141.245C171.437 141.495 171.615 141.801 171.746 142.164C171.883 142.527 171.951 142.94 171.951 143.404C171.951 143.922 171.868 144.389 171.701 144.805C171.541 145.222 171.318 145.572 171.032 145.858C170.747 146.143 170.402 146.384 169.997 146.581C169.593 146.771 169.159 146.911 168.695 147C168.231 147.083 167.731 147.125 167.196 147.125C166.208 147.125 165.254 146.976 164.332 146.679C163.41 146.375 162.58 145.941 161.843 145.376L162.779 143.619C163.154 144.005 163.764 144.38 164.608 144.743C165.459 145.1 166.333 145.278 167.232 145.278C168.04 145.278 168.662 145.135 169.096 144.85C169.536 144.564 169.756 144.154 169.756 143.619C169.756 143.404 169.724 143.211 169.658 143.039C169.593 142.866 169.48 142.711 169.319 142.575C169.159 142.432 168.992 142.31 168.82 142.209C168.653 142.108 168.412 142.004 168.097 141.897C167.788 141.79 167.502 141.7 167.24 141.629C166.985 141.558 166.637 141.465 166.197 141.352C165.513 141.174 164.947 140.993 164.501 140.808C164.055 140.624 163.66 140.398 163.315 140.13C162.976 139.862 162.729 139.547 162.574 139.184C162.42 138.816 162.342 138.381 162.342 137.882C162.342 137.257 162.461 136.695 162.699 136.195C162.943 135.69 163.276 135.274 163.698 134.946C164.121 134.619 164.617 134.369 165.188 134.197C165.759 134.024 166.381 133.938 167.053 133.938C168.647 133.938 170.107 134.426 171.434 135.401L170.506 137.079ZM186.629 135.839H182.32V147H180.25V135.839H175.923V134.027H186.629V135.839ZM196.739 132.689L195.419 132.288L196.463 130.28H198.381L196.739 132.689ZM200.371 145.189V147H191.475V134.027H200.21V135.839H193.519V139.523H199.309V141.227H193.519V145.189H200.371ZM205.591 147V134.027H211.239C211.804 134.027 212.339 134.149 212.845 134.393C213.357 134.637 213.785 134.958 214.13 135.357C214.475 135.755 214.748 136.207 214.951 136.713C215.153 137.219 215.254 137.73 215.254 138.248C215.254 139.128 215.022 139.925 214.558 140.639C214.094 141.346 213.481 141.822 212.72 142.066L215.771 147H213.47L210.65 142.485H207.635V147H205.591ZM207.635 140.674H211.221C211.786 140.674 212.253 140.439 212.622 139.969C212.991 139.494 213.175 138.92 213.175 138.248C213.175 137.587 212.967 137.022 212.551 136.552C212.134 136.077 211.652 135.839 211.105 135.839H207.635V140.674ZM220.778 147V134.027H222.821V147H220.778ZM228.042 140.514C228.042 139.657 228.2 138.83 228.515 138.033C228.836 137.23 229.27 136.529 229.818 135.928C230.365 135.327 231.028 134.845 231.807 134.482C232.586 134.12 233.413 133.938 234.287 133.938C235.186 133.938 236.027 134.129 236.812 134.509C237.598 134.89 238.252 135.392 238.775 136.017C239.305 136.636 239.721 137.34 240.024 138.132C240.328 138.917 240.479 139.717 240.479 140.532C240.479 141.388 240.319 142.215 239.998 143.012C239.682 143.809 239.254 144.508 238.713 145.109C238.172 145.709 237.511 146.191 236.732 146.554C235.953 146.911 235.126 147.089 234.252 147.089C233.526 147.089 232.836 146.97 232.182 146.732C231.528 146.488 230.951 146.155 230.451 145.733C229.957 145.311 229.526 144.823 229.157 144.27C228.794 143.717 228.518 143.119 228.328 142.477C228.137 141.828 228.042 141.174 228.042 140.514ZM234.27 145.242C234.9 145.242 235.48 145.106 236.009 144.832C236.539 144.558 236.973 144.198 237.312 143.752C237.651 143.3 237.913 142.795 238.097 142.236C238.287 141.677 238.383 141.103 238.383 140.514C238.383 139.901 238.282 139.312 238.079 138.747C237.883 138.176 237.609 137.674 237.258 137.239C236.914 136.799 236.479 136.451 235.956 136.195C235.438 135.934 234.876 135.803 234.27 135.803C233.639 135.803 233.056 135.94 232.521 136.213C231.992 136.481 231.554 136.838 231.209 137.284C230.864 137.73 230.597 138.233 230.406 138.792C230.216 139.351 230.121 139.925 230.121 140.514C230.121 141.335 230.284 142.102 230.612 142.816C230.945 143.529 231.432 144.112 232.075 144.564C232.717 145.016 233.449 145.242 234.27 145.242ZM253.33 147V134.027H257.934C258.951 134.027 259.864 134.197 260.673 134.536C261.488 134.869 262.154 135.333 262.671 135.928C263.189 136.517 263.581 137.201 263.849 137.98C264.122 138.753 264.259 139.592 264.259 140.496C264.259 142.459 263.682 144.035 262.528 145.225C261.38 146.408 259.849 147 257.934 147H253.33ZM257.934 135.839H255.373V145.189H257.934C258.826 145.189 259.593 144.984 260.235 144.573C260.884 144.157 261.369 143.598 261.69 142.896C262.011 142.194 262.172 141.394 262.172 140.496C262.172 139.11 261.794 137.989 261.038 137.132C260.289 136.27 259.254 135.839 257.934 135.839ZM272.799 134.027H274.735L279.776 147H277.617L276.252 143.476H271.247L269.89 147H267.714L272.799 134.027ZM275.85 141.959L273.763 136.276L271.612 141.959H275.85Z" fill="black"/>
<path d="M85.6053 174V161.027H89.1651V174H85.6053ZM100.926 167.094H106.261V174H103.317V172.92C102.401 173.7 101.336 174.089 100.123 174.089C99.2722 174.089 98.4663 173.938 97.7049 173.634C96.9495 173.325 96.2804 172.894 95.6975 172.341C95.1205 171.781 94.6625 171.077 94.3235 170.226C93.9844 169.375 93.8149 168.436 93.8149 167.407C93.8149 166.508 93.9874 165.661 94.3324 164.864C94.6774 164.067 95.1443 163.383 95.7331 162.812C96.322 162.235 97.0268 161.78 97.8477 161.447C98.6744 161.108 99.5488 160.938 100.471 160.938C101.642 160.938 102.701 161.191 103.647 161.697C104.593 162.202 105.298 162.892 105.761 163.766L103.121 165.792C102.871 165.28 102.487 164.87 101.97 164.561C101.452 164.251 100.908 164.097 100.337 164.097C99.4923 164.097 98.7964 164.418 98.2492 165.06C97.7079 165.703 97.4372 166.526 97.4372 167.532C97.4372 168.549 97.7109 169.369 98.2581 169.994C98.8112 170.619 99.5339 170.931 100.426 170.931C101.443 170.931 102.359 170.506 103.174 169.655H100.926V167.094ZM116.79 174.107C115.982 174.107 115.247 173.994 114.587 173.768C113.932 173.542 113.379 173.233 112.927 172.84C112.481 172.448 112.106 171.978 111.803 171.43C111.5 170.883 111.28 170.3 111.143 169.682C111.006 169.057 110.938 168.394 110.938 167.692V161.027H114.506V167.692C114.506 168.138 114.548 168.552 114.631 168.932C114.721 169.313 114.851 169.658 115.024 169.967C115.202 170.271 115.44 170.511 115.738 170.69C116.041 170.862 116.392 170.949 116.79 170.949C117.195 170.949 117.549 170.859 117.852 170.681C118.156 170.503 118.393 170.259 118.566 169.949C118.744 169.634 118.875 169.289 118.959 168.914C119.048 168.534 119.092 168.126 119.092 167.692V161.027H122.652V167.692C122.652 168.614 122.533 169.459 122.295 170.226C122.057 170.993 121.704 171.668 121.234 172.251C120.77 172.834 120.157 173.289 119.396 173.616C118.64 173.943 117.772 174.107 116.79 174.107ZM130.327 161.027H134.306L138.437 174H134.823L134.038 171.457H130.576L129.809 174H126.178L130.327 161.027ZM133.467 169.084L132.316 164.516L131.112 169.084H133.467ZM142.623 174V161.027H146.182V170.895H152.071V174H142.623ZM156.417 174V161.027H161.405C162.452 161.027 163.394 161.197 164.233 161.536C165.078 161.869 165.765 162.333 166.294 162.928C166.829 163.517 167.237 164.201 167.516 164.98C167.802 165.753 167.945 166.592 167.945 167.496C167.945 169.459 167.347 171.035 166.151 172.225C164.962 173.408 163.379 174 161.405 174H156.417ZM161.405 164.132H159.977V170.895H161.405C162.315 170.895 163.029 170.58 163.546 169.949C164.069 169.319 164.331 168.501 164.331 167.496C164.331 166.479 164.069 165.664 163.546 165.051C163.023 164.439 162.309 164.132 161.405 164.132ZM175.084 161.027H179.063L183.194 174H179.58L178.795 171.457H175.333L174.566 174H170.935L175.084 161.027ZM178.224 169.084L177.073 164.516L175.869 169.084H178.224ZM187.38 174V161.027H192.367C193.414 161.027 194.357 161.197 195.195 161.536C196.04 161.869 196.727 162.333 197.256 162.928C197.792 163.517 198.199 164.201 198.478 164.98C198.764 165.753 198.907 166.592 198.907 167.496C198.907 169.459 198.309 171.035 197.113 172.225C195.924 173.408 194.342 174 192.367 174H187.38ZM192.367 164.132H190.939V170.895H192.367C193.277 170.895 193.991 170.58 194.508 169.949C195.032 169.319 195.293 168.501 195.293 167.496C195.293 166.479 195.032 165.664 194.508 165.051C193.985 164.439 193.271 164.132 192.367 164.132ZM212.809 170.895V174H203.565V161.027H212.648V164.132H207.125V165.961H211.845V168.843H207.125V170.895H212.809ZM224.785 174V161.027H230.745C231.357 161.027 231.94 161.158 232.493 161.42C233.047 161.682 233.511 162.024 233.885 162.446C234.26 162.868 234.557 163.35 234.777 163.891C234.998 164.427 235.108 164.971 235.108 165.524C235.108 166.274 234.941 166.975 234.608 167.63C234.281 168.284 233.826 168.816 233.243 169.227L235.982 174H232.074L229.79 170.021H228.345V174H224.785ZM228.345 166.907H230.593C230.825 166.907 231.033 166.782 231.218 166.532C231.402 166.277 231.494 165.94 231.494 165.524C231.494 165.108 231.39 164.772 231.182 164.516C230.974 164.26 230.748 164.132 230.504 164.132H228.345V166.907ZM243.219 161.027H247.198L251.329 174H247.716L246.931 171.457H243.469L242.702 174H239.07L243.219 161.027ZM246.36 169.084L245.209 164.516L244.004 169.084H246.36ZM260.913 160.956C262.132 160.956 263.209 161.212 264.143 161.723C265.076 162.235 265.772 162.922 266.23 163.784L263.509 165.72C263.39 165.417 263.23 165.158 263.027 164.944C262.825 164.724 262.599 164.558 262.349 164.445C262.099 164.326 261.85 164.242 261.6 164.195C261.356 164.141 261.103 164.114 260.841 164.114C260.354 164.114 259.917 164.216 259.53 164.418C259.143 164.614 258.834 164.879 258.602 165.212C258.376 165.539 258.204 165.899 258.085 166.291C257.966 166.684 257.906 167.091 257.906 167.514C257.906 168.459 258.177 169.268 258.718 169.94C259.259 170.613 259.979 170.949 260.877 170.949C261.228 170.949 261.564 170.901 261.885 170.806C262.207 170.705 262.513 170.532 262.804 170.288C263.102 170.039 263.319 169.729 263.456 169.361L266.364 171.091C266.12 171.704 265.692 172.245 265.079 172.715C264.473 173.185 263.798 173.536 263.054 173.768C262.311 173.994 261.561 174.107 260.806 174.107C259.878 174.107 259.001 173.914 258.174 173.527C257.353 173.141 256.66 172.635 256.095 172.01C255.536 171.38 255.093 170.663 254.766 169.86C254.444 169.051 254.284 168.233 254.284 167.407C254.284 166.61 254.435 165.83 254.739 165.069C255.048 164.302 255.476 163.612 256.024 162.999C256.577 162.387 257.279 161.893 258.129 161.518C258.98 161.143 259.908 160.956 260.913 160.956ZM270.737 174V161.027H274.297V174H270.737ZM282.641 161.027H286.62L290.751 174H287.137L286.352 171.457H282.891L282.123 174H278.492L282.641 161.027ZM285.781 169.084L284.63 164.516L283.426 169.084H285.781ZM294.937 174V161.027H298.497V170.895H304.385V174H294.937Z" fill="black"/>
</svg>
